<?xml version="1.0" encoding="UTF-8" standalone="no"?>
<!DOCTYPE svg PUBLIC "-//W3C//DTD SVG 1.1//EN" "http://www.w3.org/Graphics/SVG/1.1/DTD/svg11.dtd">
<!-- Generated by Microsoft Visio, SVG Export joysticks.svg Page-1 -->
<svg xmlns="http://www.w3.org/2000/svg" xmlns:xlink="http://www.w3.org/1999/xlink" xmlns:ev="http://www.w3.org/2001/xml-events"
		xmlns:v="http://schemas.microsoft.com/visio/2003/SVGExtensions/" width="2.13115in" height="2.00003in"
		viewBox="0 0 153.443 144.002" xml:space="preserve" color-interpolation-filters="sRGB" class="st5">
	<v:documentProperties v:langID="2057" v:metric="true" v:viewMarkup="false">
		<v:userDefs>
			<v:ud v:nameU="msvNoAutoConnect" v:val="VT0(1):26"/>
		</v:userDefs>
	</v:documentProperties>

	<style type="text/css">
	<![CDATA[
		.st1 {fill:#ffffff;stroke:#000000;stroke-linecap:round;stroke-linejoin:round;stroke-width:0.24}
		.st2 {stroke:#000000;stroke-linecap:round;stroke-linejoin:round;stroke-width:0.75}
		.st3 {fill:none;stroke:none;stroke-linecap:round;stroke-linejoin:round;stroke-width:0.75}
		.st4 {fill:#000000;font-family:Calibri;font-size:0.833336em}
		.st5 {fill:none;fill-rule:evenodd;font-size:12px;overflow:visible;stroke-linecap:square;stroke-miterlimit:3}
	]]>
	</style>

	<g v:mID="0" v:index="1" v:groupContext="foregroundPage">
		<title>Page-1</title>
		<v:pageProperties v:drawingScale="0.0393701" v:pageScale="0.0393701" v:drawingUnits="24" v:shadowOffsetX="8.50394"
				v:shadowOffsetY="-8.50394"/>
		<g id="shape1-1" v:mID="1" v:groupContext="shape" transform="translate(18.375,-18.375)">
			<title>Circle</title>
			<v:userDefs>
				<v:ud v:nameU="visVersion" v:val="VT0(15):26"/>
			</v:userDefs>
			<path d="M0 97.55 A46.4567 46.4567 0 1 1 92.91 97.55 A46.4567 46.4567 0 0 1 0 97.55 Z" class="st1"/>
		</g>
		<g id="shape3-3" v:mID="3" v:groupContext="shape" transform="translate(208.834,32.7136) rotate(90)">
			<title>Sheet.3</title>
			<path d="M0 144 L92.91 144" class="st2"/>
		</g>
		<g id="shape4-6" v:mID="4" v:groupContext="shape" transform="translate(18.375,-64.8317)">
			<title>Sheet.4</title>
			<path d="M0 144 L92.91 144" class="st2"/>
		</g>
		<g id="shape6-9" v:mID="6" v:groupContext="shape" transform="translate(18.375,-102.107)">
			<title>Circle.6</title>
			<v:userDefs>
				<v:ud v:nameU="visVersion" v:val="VT0(15):26"/>
			</v:userDefs>
			<path d="M0 139.41 A4.59056 4.59056 0 1 1 9.18 139.41 A4.59056 4.59056 0 0 1 0 139.41 Z" class="st1"/>
		</g>
		<g id="shape7-11" v:mID="7" v:groupContext="shape" transform="translate(60.2411,-60.2411)">
			<title>Circle.7</title>
			<v:userDefs>
				<v:ud v:nameU="visVersion" v:val="VT0(15):26"/>
			</v:userDefs>
			<path d="M0 139.41 A4.59056 4.59056 0 1 1 9.18 139.41 A4.59056 4.59056 0 0 1 0 139.41 Z" class="st1"/>
		</g>
		<g id="shape8-13" v:mID="8" v:groupContext="shape" transform="translate(102.107,-18.375)">
			<title>Circle.8</title>
			<v:userDefs>
				<v:ud v:nameU="visVersion" v:val="VT0(15):26"/>
			</v:userDefs>
			<path d="M0 139.41 A4.59056 4.59056 0 1 1 9.18 139.41 A4.59056 4.59056 0 0 1 0 139.41 Z" class="st1"/>
		</g>
		<g id="shape9-15" v:mID="9" v:groupContext="shape" transform="translate(61.8474,-60.2411)">
			<title>Sheet.9</title>
			<desc>0, 0</desc>
			<v:textBlock v:margins="rect(4,4,4,4)" v:tabSpace="42.5197"/>
			<v:textRect cx="16.4803" cy="134.002" width="32.97" height="20"/>
			<rect x="0" y="124.002" width="32.9606" height="20" class="st3"/>
			<text x="9.03" y="137" class="st4" v:langID="2057"><v:paragraph v:horizAlign="1"/><v:tabList/>0, 0</text>		</g>
		<g id="shape10-18" v:mID="10" v:groupContext="shape" transform="translate(102.107,-18.375)">
			<title>Sheet.10</title>
			<desc>1, 1</desc>
			<v:textBlock v:margins="rect(4,4,4,4)" v:tabSpace="42.5197"/>
			<v:textRect cx="16.4803" cy="134.002" width="32.97" height="20"/>
			<rect x="0" y="124.002" width="32.9606" height="20" class="st3"/>
			<text x="9.03" y="137" class="st4" v:langID="2057"><v:paragraph v:horizAlign="1"/><v:tabList/>1, 1</text>		</g>
		<g id="shape11-21" v:mID="11" v:groupContext="shape" transform="translate(18.375,-105.627)">
			<title>Sheet.11</title>
			<desc>-1, -1</desc>
			<v:textBlock v:margins="rect(4,4,4,4)" v:tabSpace="42.5197"/>
			<v:textRect cx="16.4803" cy="134.002" width="32.97" height="20"/>
			<rect x="0" y="124.002" width="32.9606" height="20" class="st3"/>
			<text x="5.97" y="137" class="st4" v:langID="2057"><v:paragraph v:horizAlign="1"/><v:tabList/>-1, -1</text>		</g>
	</g>
</svg>
