<svg xmlns="http://www.w3.org/2000/svg" viewBox="0 0 21.58 16"><defs><style>.a{fill:#a352fe;}.b{fill:#fff;}</style></defs><title>client-method-optional</title><circle class="a" cx="8" cy="8" r="8"/><path class="b" d="M11.42,12.06a5.53,5.53,0,0,1-2.26.39A4.13,4.13,0,0,1,4.69,8,4.41,4.41,0,0,1,9.37,3.41a5,5,0,0,1,2.13.39l-.35,1.27a4.26,4.26,0,0,0-1.72-.34A2.92,2.92,0,0,0,6.37,8a2.88,2.88,0,0,0,3.05,3.16,4.49,4.49,0,0,0,1.74-.33Z"/><path class="a" d="M18.37,10l0-.34a2.9,2.9,0,0,1,.78-2.13A2.59,2.59,0,0,0,19.94,6c0-.55-.34-.91-1.07-.92a2.29,2.29,0,0,0-1.3.39l-.39-1.14a4,4,0,0,1,2-.53c1.61,0,2.35.94,2.35,2A3.39,3.39,0,0,1,20.45,8a2.43,2.43,0,0,0-.69,1.75V10ZM18,11.79a1,1,0,1,1,1,1A1,1,0,0,1,18,11.79Z"/></svg>