<svg xmlns="http://www.w3.org/2000/svg" viewBox="0 0 21.58 16"><defs><style>.a{fill:#537bfe;}.b{fill:#fff;}</style></defs><title>server-method-optional</title><circle class="a" cx="8" cy="8" r="8"/><path class="b" d="M5.55,10.58a4.42,4.42,0,0,0,2.12.56c1,0,1.6-.48,1.6-1.2S8.83,8.89,7.71,8.48C6.27,8,5.34,7.2,5.34,5.94c0-1.43,1.2-2.52,3.09-2.52a4.62,4.62,0,0,1,2.11.44l-.39,1.29a3.71,3.71,0,0,0-1.74-.42C7.4,4.73,7,5.27,7,5.78c0,.68.51,1,1.68,1.44,1.52.57,2.26,1.34,2.26,2.6s-1.07,2.63-3.33,2.63A5.2,5.2,0,0,1,5.2,11.9Z"/><path class="a" d="M18.37,10l0-.34a2.9,2.9,0,0,1,.78-2.13A2.59,2.59,0,0,0,19.94,6c0-.55-.34-.91-1.07-.92a2.29,2.29,0,0,0-1.3.39l-.39-1.14a4,4,0,0,1,2-.53c1.61,0,2.35.94,2.35,2A3.39,3.39,0,0,1,20.45,8a2.43,2.43,0,0,0-.69,1.75V10ZM18,11.79a1,1,0,1,1,1,1A1,1,0,0,1,18,11.79Z"/></svg>