<svg xmlns="http://www.w3.org/2000/svg" viewBox="0 0 16 16"><defs><style>.a{fill:#537bfe;}.b{fill:#fff;}</style></defs><title>server-method</title><circle class="a" cx="8" cy="8" r="8"/><path class="b" d="M5.55,10.58a4.42,4.42,0,0,0,2.12.56c1,0,1.6-.48,1.6-1.2S8.83,8.89,7.71,8.48C6.27,8,5.34,7.2,5.34,5.94c0-1.43,1.2-2.52,3.09-2.52a4.62,4.62,0,0,1,2.11.44l-.39,1.29a3.71,3.71,0,0,0-1.74-.42C7.4,4.73,7,5.27,7,5.78c0,.68.51,1,1.68,1.44,1.52.57,2.26,1.34,2.26,2.6s-1.07,2.63-3.33,2.63A5.2,5.2,0,0,1,5.2,11.9Z"/></svg>