<svg xmlns="http://www.w3.org/2000/svg" version="1.1" width="470" height="92">
<path d="M 2.878906 26.319336 L 2.878906 19.412109 L 6.729980 19.412109 L 6.729980 20.335938 L 3.738281 20.335938 L 3.738281 26.319336 Z " fill="#fff" fill-opacity="1.000000" />
<path d="M 2.878906 39.319336 L 2.878906 25.300781 L 3.738281 25.300781 L 3.738281 39.319336 Z " fill="#fff" fill-opacity="1.000000" />
<path d="M 2.878906 46.335938 L 2.878906 38.300781 L 3.738281 38.300781 L 3.738281 45.412109 L 6.729980 45.412109 L 6.729980 46.335938 Z " fill="#fff" fill-opacity="1.000000" />
<path d="M 63.032227 62.418945 L 66.308594 55.866211 L 69.590332 62.418945 Z " fill="#fff" fill-opacity="1.000000" />
<path d="M 65.878906 78.319336 L 65.878906 64.300781 L 66.738281 64.300781 L 66.738281 78.319336 Z " fill="#fff" fill-opacity="1.000000" />
<path d="M 65.878906 85.335938 L 65.878906 77.300781 L 66.738281 77.300781 L 66.738281 84.412109 L 69.729980 84.412109 L 69.729980 85.335938 Z " fill="#fff" fill-opacity="1.000000" />
<path d="M 69.892578 85.335938 L 69.892578 84.412109 L 76.729980 84.412109 L 76.729980 85.335938 Z " fill="#fff" fill-opacity="1.000000" />
<path d="M 76.892578 85.335938 L 76.892578 84.412109 L 83.729980 84.412109 L 83.729980 85.335938 Z " fill="#fff" fill-opacity="1.000000" />
<path d="M 83.892578 85.335938 L 83.892578 84.412109 L 90.729980 84.412109 L 90.729980 85.335938 Z " fill="#fff" fill-opacity="1.000000" />
<path d="M 90.892578 85.335938 L 90.892578 84.412109 L 97.729980 84.412109 L 97.729980 85.335938 Z " fill="#fff" fill-opacity="1.000000" />
<path d="M 97.892578 85.335938 L 97.892578 84.412109 L 104.729980 84.412109 L 104.729980 85.335938 Z " fill="#fff" fill-opacity="1.000000" />
<path d="M 104.892578 85.335938 L 104.892578 84.412109 L 111.729980 84.412109 L 111.729980 85.335938 Z " fill="#fff" fill-opacity="1.000000" />
<path d="M 111.892578 85.335938 L 111.892578 84.412109 L 118.729980 84.412109 L 118.729980 85.335938 Z " fill="#fff" fill-opacity="1.000000" />
<path d="M 118.892578 85.335938 L 118.892578 84.412109 L 125.729980 84.412109 L 125.729980 85.335938 Z " fill="#fff" fill-opacity="1.000000" />
<path d="M 125.892578 85.335938 L 125.892578 84.412109 L 132.729980 84.412109 L 132.729980 85.335938 Z " fill="#fff" fill-opacity="1.000000" />
<path d="M 132.892578 85.335938 L 132.892578 84.412109 L 139.729980 84.412109 L 139.729980 85.335938 Z " fill="#fff" fill-opacity="1.000000" />
<path d="M 139.892578 85.335938 L 139.892578 84.412109 L 146.729980 84.412109 L 146.729980 85.335938 Z " fill="#fff" fill-opacity="1.000000" />
<path d="M 146.892578 85.335938 L 146.892578 84.412109 L 153.729980 84.412109 L 153.729980 85.335938 Z " fill="#fff" fill-opacity="1.000000" />
<path d="M 153.892578 85.335938 L 153.892578 84.412109 L 160.729980 84.412109 L 160.729980 85.335938 Z " fill="#fff" fill-opacity="1.000000" />
<path d="M 160.892578 85.335938 L 160.892578 84.412109 L 167.729980 84.412109 L 167.729980 85.335938 Z " fill="#fff" fill-opacity="1.000000" />
<path d="M 167.892578 85.335938 L 167.892578 84.412109 L 174.729980 84.412109 L 174.729980 85.335938 Z " fill="#fff" fill-opacity="1.000000" />
<path d="M 177.341797 87.108398 Q 178.711426 87.108398 179.253906 86.434326 Q 179.796387 85.760254 179.796387 83.998535 Q 179.796387 82.220703 179.256592 81.546631 Q 178.716797 80.872559 177.341797 80.872559 L 176.826172 80.872559 L 176.826172 87.108398 Z M 177.363281 79.980957 Q 179.200195 79.980957 180.070312 80.958496 Q 180.940430 81.936035 180.940430 83.998535 Q 180.940430 86.050293 180.070312 87.025146 Q 179.200195 88.000000 177.363281 88.000000 L 175.735840 88.000000 L 175.735840 79.980957 Z " fill="#fff" fill-opacity="1.000000" />
<path d="M 183.697266 82.005859 L 186.227051 82.005859 L 186.227051 87.231934 L 188.187500 87.231934 L 188.187500 88.000000 L 183.278320 88.000000 L 183.278320 87.231934 L 185.238770 87.231934 L 185.238770 82.773926 L 183.697266 82.773926 Z M 185.238770 79.669434 L 186.227051 79.669434 L 186.227051 80.915527 L 185.238770 80.915527 Z " fill="#fff" fill-opacity="1.000000" />
<path d="M 194.226074 82.193848 L 194.226074 83.160645 Q 193.801758 82.913574 193.372070 82.790039 Q 192.942383 82.666504 192.496582 82.666504 Q 191.825195 82.666504 191.494873 82.884033 Q 191.164551 83.101562 191.164551 83.547363 Q 191.164551 83.950195 191.411621 84.148926 Q 191.658691 84.347656 192.641602 84.535645 L 193.039062 84.610840 Q 193.774902 84.750488 194.153564 85.169434 Q 194.532227 85.588379 194.532227 86.259766 Q 194.532227 87.151367 193.898438 87.653564 Q 193.264648 88.155762 192.136719 88.155762 Q 191.690918 88.155762 191.202148 88.061768 Q 190.713379 87.967773 190.144043 87.779785 L 190.144043 86.759277 Q 190.697266 87.043945 191.202148 87.186279 Q 191.707031 87.328613 192.158203 87.328613 Q 192.813477 87.328613 193.173340 87.062744 Q 193.533203 86.796875 193.533203 86.318848 Q 193.533203 85.631348 192.217285 85.368164 L 192.174316 85.357422 L 191.803711 85.282227 Q 190.949707 85.115723 190.557617 84.720947 Q 190.165527 84.326172 190.165527 83.644043 Q 190.165527 82.779297 190.750977 82.309326 Q 191.336426 81.839355 192.421387 81.839355 Q 192.904785 81.839355 193.350586 81.927979 Q 193.796387 82.016602 194.226074 82.193848 Z " fill="#fff" fill-opacity="1.000000" />
<path d="M 201.698730 87.693848 Q 201.301270 87.924805 200.879639 88.040283 Q 200.458008 88.155762 200.017578 88.155762 Q 198.621094 88.155762 197.834229 87.317871 Q 197.047363 86.479980 197.047363 84.997559 Q 197.047363 83.515137 197.834229 82.677246 Q 198.621094 81.839355 200.017578 81.839355 Q 200.452637 81.839355 200.866211 81.952148 Q 201.279785 82.064941 201.698730 82.301270 L 201.698730 83.337891 Q 201.306641 82.988770 200.911865 82.833008 Q 200.517090 82.677246 200.017578 82.677246 Q 199.088379 82.677246 198.588867 83.278809 Q 198.089355 83.880371 198.089355 84.997559 Q 198.089355 86.109375 198.591553 86.713623 Q 199.093750 87.317871 200.017578 87.317871 Q 200.533203 87.317871 200.941406 87.159424 Q 201.349609 87.000977 201.698730 86.667969 Z " fill="#fff" fill-opacity="1.000000" />
<path d="M 206.308594 82.677246 Q 205.556641 82.677246 205.169922 83.262695 Q 204.783203 83.848145 204.783203 84.997559 Q 204.783203 86.141602 205.169922 86.729736 Q 205.556641 87.317871 206.308594 87.317871 Q 207.065918 87.317871 207.452637 86.729736 Q 207.839355 86.141602 207.839355 84.997559 Q 207.839355 83.848145 207.452637 83.262695 Q 207.065918 82.677246 206.308594 82.677246 Z M 206.308594 81.839355 Q 207.560059 81.839355 208.223389 82.650391 Q 208.886719 83.461426 208.886719 84.997559 Q 208.886719 86.539062 208.226074 87.347412 Q 207.565430 88.155762 206.308594 88.155762 Q 205.057129 88.155762 204.396484 87.347412 Q 203.735840 86.539062 203.735840 84.997559 Q 203.735840 83.461426 204.396484 82.650391 Q 205.057129 81.839355 206.308594 81.839355 Z " fill="#fff" fill-opacity="1.000000" />
<path d="M 215.645020 84.272461 L 215.645020 88.000000 L 214.651367 88.000000 L 214.651367 84.272461 Q 214.651367 83.461426 214.366699 83.080078 Q 214.082031 82.698730 213.475098 82.698730 Q 212.782227 82.698730 212.408936 83.190186 Q 212.035645 83.681641 212.035645 84.600098 L 212.035645 88.000000 L 211.047363 88.000000 L 211.047363 81.984375 L 212.035645 81.984375 L 212.035645 82.886719 Q 212.298828 82.371094 212.750000 82.105225 Q 213.201172 81.839355 213.818848 81.839355 Q 214.737305 81.839355 215.191162 82.443604 Q 215.645020 83.047852 215.645020 84.272461 Z " fill="#fff" fill-opacity="1.000000" />
<path d="M 222.645020 84.272461 L 222.645020 88.000000 L 221.651367 88.000000 L 221.651367 84.272461 Q 221.651367 83.461426 221.366699 83.080078 Q 221.082031 82.698730 220.475098 82.698730 Q 219.782227 82.698730 219.408936 83.190186 Q 219.035645 83.681641 219.035645 84.600098 L 219.035645 88.000000 L 218.047363 88.000000 L 218.047363 81.984375 L 219.035645 81.984375 L 219.035645 82.886719 Q 219.298828 82.371094 219.750000 82.105225 Q 220.201172 81.839355 220.818848 81.839355 Q 221.737305 81.839355 222.191162 82.443604 Q 222.645020 83.047852 222.645020 84.272461 Z " fill="#fff" fill-opacity="1.000000" />
<path d="M 230.015625 84.498047 L 230.015625 84.981445 L 225.734863 84.981445 L 225.734863 85.013672 Q 225.691895 86.243652 226.204834 86.780762 Q 226.717773 87.317871 227.652344 87.317871 Q 228.125000 87.317871 228.640625 87.167480 Q 229.156250 87.017090 229.741699 86.710938 L 229.741699 87.693848 Q 229.177734 87.924805 228.654053 88.040283 Q 228.130371 88.155762 227.641602 88.155762 Q 226.239746 88.155762 225.450195 87.315186 Q 224.660645 86.474609 224.660645 84.997559 Q 224.660645 83.558105 225.434082 82.698730 Q 226.207520 81.839355 227.496582 81.839355 Q 228.645996 81.839355 229.309326 82.618164 Q 229.972656 83.396973 230.015625 84.498047 Z M 229.027344 84.208008 Q 228.962891 83.584961 228.573486 83.131104 Q 228.184082 82.677246 227.453613 82.677246 Q 226.739258 82.677246 226.277344 83.149902 Q 225.815430 83.622559 225.772461 84.213379 Z " fill="#fff" fill-opacity="1.000000" />
<path d="M 236.698730 87.693848 Q 236.301270 87.924805 235.879639 88.040283 Q 235.458008 88.155762 235.017578 88.155762 Q 233.621094 88.155762 232.834229 87.317871 Q 232.047363 86.479980 232.047363 84.997559 Q 232.047363 83.515137 232.834229 82.677246 Q 233.621094 81.839355 235.017578 81.839355 Q 235.452637 81.839355 235.866211 81.952148 Q 236.279785 82.064941 236.698730 82.301270 L 236.698730 83.337891 Q 236.306641 82.988770 235.911865 82.833008 Q 235.517090 82.677246 235.017578 82.677246 Q 234.088379 82.677246 233.588867 83.278809 Q 233.089355 83.880371 233.089355 84.997559 Q 233.089355 86.109375 233.591553 86.713623 Q 234.093750 87.317871 235.017578 87.317871 Q 235.533203 87.317871 235.941406 87.159424 Q 236.349609 87.000977 236.698730 86.667969 Z " fill="#fff" fill-opacity="1.000000" />
<path d="M 241.297852 80.276367 L 241.297852 81.984375 L 243.542969 81.984375 L 243.542969 82.752441 L 241.297852 82.752441 L 241.297852 86.018066 Q 241.297852 86.684082 241.550293 86.947266 Q 241.802734 87.210449 242.431152 87.210449 L 243.542969 87.210449 L 243.542969 88.000000 L 242.334473 88.000000 Q 241.222656 88.000000 240.766113 87.554199 Q 240.309570 87.108398 240.309570 86.018066 L 240.309570 82.752441 L 238.703613 82.752441 L 238.703613 81.984375 L 240.309570 81.984375 L 240.309570 80.276367 Z " fill="#fff" fill-opacity="1.000000" />
<path d="M 244.892578 85.335938 L 244.892578 84.412109 L 251.729980 84.412109 L 251.729980 85.335938 Z " fill="#fff" fill-opacity="1.000000" />
<path d="M 251.892578 85.335938 L 251.892578 84.412109 L 258.729980 84.412109 L 258.729980 85.335938 Z " fill="#fff" fill-opacity="1.000000" />
<path d="M 258.892578 85.335938 L 258.892578 84.412109 L 265.729980 84.412109 L 265.729980 85.335938 Z " fill="#fff" fill-opacity="1.000000" />
<path d="M 265.892578 85.335938 L 265.892578 84.412109 L 272.729980 84.412109 L 272.729980 85.335938 Z " fill="#fff" fill-opacity="1.000000" />
<path d="M 272.892578 85.335938 L 272.892578 84.412109 L 279.729980 84.412109 L 279.729980 85.335938 Z " fill="#fff" fill-opacity="1.000000" />
<path d="M 279.892578 85.335938 L 279.892578 84.412109 L 286.729980 84.412109 L 286.729980 85.335938 Z " fill="#fff" fill-opacity="1.000000" />
<path d="M 286.892578 85.335938 L 286.892578 84.412109 L 293.729980 84.412109 L 293.729980 85.335938 Z " fill="#fff" fill-opacity="1.000000" />
<path d="M 293.892578 85.335938 L 293.892578 84.412109 L 300.729980 84.412109 L 300.729980 85.335938 Z " fill="#fff" fill-opacity="1.000000" />
<path d="M 300.892578 85.335938 L 300.892578 84.412109 L 307.729980 84.412109 L 307.729980 85.335938 Z " fill="#fff" fill-opacity="1.000000" />
<path d="M 307.892578 85.335938 L 307.892578 84.412109 L 314.729980 84.412109 L 314.729980 85.335938 Z " fill="#fff" fill-opacity="1.000000" />
<path d="M 314.892578 85.335938 L 314.892578 84.412109 L 321.729980 84.412109 L 321.729980 85.335938 Z " fill="#fff" fill-opacity="1.000000" />
<path d="M 321.892578 85.335938 L 321.892578 84.412109 L 328.729980 84.412109 L 328.729980 85.335938 Z " fill="#fff" fill-opacity="1.000000" />
<path d="M 328.892578 85.335938 L 328.892578 84.412109 L 335.729980 84.412109 L 335.729980 85.335938 Z " fill="#fff" fill-opacity="1.000000" />
<path d="M 335.892578 85.335938 L 335.892578 84.412109 L 342.729980 84.412109 L 342.729980 85.335938 Z " fill="#fff" fill-opacity="1.000000" />
<path d="M 342.892578 85.335938 L 342.892578 84.412109 L 349.729980 84.412109 L 349.729980 85.335938 Z " fill="#fff" fill-opacity="1.000000" />
<path d="M 349.892578 85.335938 L 349.892578 84.412109 L 356.729980 84.412109 L 356.729980 85.335938 Z " fill="#fff" fill-opacity="1.000000" />
<path d="M 356.892578 85.335938 L 356.892578 84.412109 L 363.729980 84.412109 L 363.729980 85.335938 Z " fill="#fff" fill-opacity="1.000000" />
<path d="M 363.892578 85.335938 L 363.892578 84.412109 L 370.729980 84.412109 L 370.729980 85.335938 Z " fill="#fff" fill-opacity="1.000000" />
<path d="M 370.892578 85.335938 L 370.892578 84.412109 L 377.729980 84.412109 L 377.729980 85.335938 Z " fill="#fff" fill-opacity="1.000000" />
<path d="M 377.892578 85.335938 L 377.892578 84.412109 L 384.729980 84.412109 L 384.729980 85.335938 Z " fill="#fff" fill-opacity="1.000000" />
<path d="M 384.892578 85.335938 L 384.892578 84.412109 L 391.729980 84.412109 L 391.729980 85.335938 Z " fill="#fff" fill-opacity="1.000000" />
<path d="M 391.892578 85.335938 L 391.892578 84.412109 L 398.729980 84.412109 L 398.729980 85.335938 Z " fill="#fff" fill-opacity="1.000000" />
<path d="M 398.892578 85.335938 L 398.892578 84.412109 L 401.878906 84.412109 L 401.878906 77.300781 L 402.738281 77.300781 L 402.738281 85.335938 Z " fill="#fff" fill-opacity="1.000000" />
<path d="M 401.878906 78.319336 L 401.878906 64.300781 L 402.738281 64.300781 L 402.738281 78.319336 Z " fill="#fff" fill-opacity="1.000000" />
<path d="M 401.878906 65.319336 L 401.878906 51.300781 L 402.738281 51.300781 L 402.738281 65.319336 Z " fill="#fff" fill-opacity="1.000000" />
<path d="M 6.892578 46.335938 L 6.892578 45.412109 L 13.729980 45.412109 L 13.729980 46.335938 Z " fill="#fff" fill-opacity="1.000000" />
<path d="M 13.892578 46.335938 L 13.892578 45.412109 L 20.729980 45.412109 L 20.729980 46.335938 Z " fill="#fff" fill-opacity="1.000000" />
<path d="M 20.892578 46.335938 L 20.892578 45.412109 L 27.729980 45.412109 L 27.729980 46.335938 Z " fill="#fff" fill-opacity="1.000000" />
<path d="M 27.892578 46.335938 L 27.892578 45.412109 L 34.729980 45.412109 L 34.729980 46.335938 Z " fill="#fff" fill-opacity="1.000000" />
<path d="M 34.892578 46.335938 L 34.892578 45.412109 L 41.729980 45.412109 L 41.729980 46.335938 Z " fill="#fff" fill-opacity="1.000000" />
<path d="M 41.892578 46.335938 L 41.892578 45.412109 L 48.729980 45.412109 L 48.729980 46.335938 Z " fill="#fff" fill-opacity="1.000000" />
<path d="M 48.892578 46.335938 L 48.892578 45.412109 L 55.729980 45.412109 L 55.729980 46.335938 Z " fill="#fff" fill-opacity="1.000000" />
<path d="M 55.892578 46.335938 L 55.892578 45.412109 L 62.729980 45.412109 L 62.729980 46.335938 Z " fill="#fff" fill-opacity="1.000000" />
<path d="M 62.892578 46.335938 L 62.892578 45.412109 L 69.729980 45.412109 L 69.729980 46.335938 Z " fill="#fff" fill-opacity="1.000000" />
<path d="M 69.892578 46.335938 L 69.892578 45.412109 L 76.729980 45.412109 L 76.729980 46.335938 Z " fill="#fff" fill-opacity="1.000000" />
<path d="M 76.892578 46.335938 L 76.892578 45.412109 L 83.729980 45.412109 L 83.729980 46.335938 Z " fill="#fff" fill-opacity="1.000000" />
<path d="M 83.892578 46.335938 L 83.892578 45.412109 L 90.729980 45.412109 L 90.729980 46.335938 Z " fill="#fff" fill-opacity="1.000000" />
<path d="M 90.892578 46.335938 L 90.892578 45.412109 L 97.729980 45.412109 L 97.729980 46.335938 Z " fill="#fff" fill-opacity="1.000000" />
<path d="M 97.892578 46.335938 L 97.892578 45.412109 L 104.729980 45.412109 L 104.729980 46.335938 Z " fill="#fff" fill-opacity="1.000000" />
<path d="M 104.892578 46.335938 L 104.892578 45.412109 L 111.729980 45.412109 L 111.729980 46.335938 Z " fill="#fff" fill-opacity="1.000000" />
<path d="M 111.892578 46.335938 L 111.892578 45.412109 L 118.729980 45.412109 L 118.729980 46.335938 Z " fill="#fff" fill-opacity="1.000000" />
<path d="M 118.892578 46.335938 L 118.892578 45.412109 L 125.729980 45.412109 L 125.729980 46.335938 Z " fill="#fff" fill-opacity="1.000000" />
<path d="M 125.892578 46.335938 L 125.892578 45.412109 L 128.878906 45.412109 L 128.878906 38.300781 L 129.738281 38.300781 L 129.738281 46.335938 Z " fill="#fff" fill-opacity="1.000000" />
<path d="M 170.878906 46.335938 L 170.878906 38.300781 L 171.738281 38.300781 L 171.738281 45.412109 L 174.729980 45.412109 L 174.729980 46.335938 Z " fill="#fff" fill-opacity="1.000000" />
<path d="M 174.892578 46.335938 L 174.892578 45.412109 L 181.729980 45.412109 L 181.729980 46.335938 Z " fill="#fff" fill-opacity="1.000000" />
<path d="M 181.892578 46.335938 L 181.892578 45.412109 L 188.729980 45.412109 L 188.729980 46.335938 Z " fill="#fff" fill-opacity="1.000000" />
<path d="M 188.892578 46.335938 L 188.892578 45.412109 L 195.729980 45.412109 L 195.729980 46.335938 Z " fill="#fff" fill-opacity="1.000000" />
<path d="M 195.892578 46.335938 L 195.892578 45.412109 L 202.729980 45.412109 L 202.729980 46.335938 Z " fill="#fff" fill-opacity="1.000000" />
<path d="M 202.892578 46.335938 L 202.892578 45.412109 L 209.729980 45.412109 L 209.729980 46.335938 Z " fill="#fff" fill-opacity="1.000000" />
<path d="M 209.892578 46.335938 L 209.892578 45.412109 L 216.729980 45.412109 L 216.729980 46.335938 Z " fill="#fff" fill-opacity="1.000000" />
<path d="M 216.892578 46.335938 L 216.892578 45.412109 L 223.729980 45.412109 L 223.729980 46.335938 Z " fill="#fff" fill-opacity="1.000000" />
<path d="M 223.892578 46.335938 L 223.892578 45.412109 L 230.729980 45.412109 L 230.729980 46.335938 Z " fill="#fff" fill-opacity="1.000000" />
<path d="M 230.892578 46.335938 L 230.892578 45.412109 L 237.729980 45.412109 L 237.729980 46.335938 Z " fill="#fff" fill-opacity="1.000000" />
<path d="M 237.892578 46.335938 L 237.892578 45.412109 L 244.729980 45.412109 L 244.729980 46.335938 Z " fill="#fff" fill-opacity="1.000000" />
<path d="M 244.892578 46.335938 L 244.892578 45.412109 L 251.729980 45.412109 L 251.729980 46.335938 Z " fill="#fff" fill-opacity="1.000000" />
<path d="M 251.892578 46.335938 L 251.892578 45.412109 L 258.729980 45.412109 L 258.729980 46.335938 Z " fill="#fff" fill-opacity="1.000000" />
<path d="M 258.892578 46.335938 L 258.892578 45.412109 L 265.729980 45.412109 L 265.729980 46.335938 Z " fill="#fff" fill-opacity="1.000000" />
<path d="M 265.892578 46.335938 L 265.892578 45.412109 L 272.729980 45.412109 L 272.729980 46.335938 Z " fill="#fff" fill-opacity="1.000000" />
<path d="M 272.892578 46.335938 L 272.892578 45.412109 L 279.729980 45.412109 L 279.729980 46.335938 Z " fill="#fff" fill-opacity="1.000000" />
<path d="M 279.892578 46.335938 L 279.892578 45.412109 L 286.729980 45.412109 L 286.729980 46.335938 Z " fill="#fff" fill-opacity="1.000000" />
<path d="M 286.892578 46.335938 L 286.892578 45.412109 L 293.729980 45.412109 L 293.729980 46.335938 Z " fill="#fff" fill-opacity="1.000000" />
<path d="M 293.892578 46.335938 L 293.892578 45.412109 L 296.878906 45.412109 L 296.878906 38.300781 L 297.738281 38.300781 L 297.738281 46.335938 Z " fill="#fff" fill-opacity="1.000000" />
<path d="M 338.878906 46.335938 L 338.878906 38.300781 L 339.738281 38.300781 L 339.738281 45.412109 L 342.729980 45.412109 L 342.729980 46.335938 Z " fill="#fff" fill-opacity="1.000000" />
<path d="M 342.892578 46.335938 L 342.892578 45.412109 L 349.729980 45.412109 L 349.729980 46.335938 Z " fill="#fff" fill-opacity="1.000000" />
<path d="M 349.892578 46.335938 L 349.892578 45.412109 L 356.729980 45.412109 L 356.729980 46.335938 Z " fill="#fff" fill-opacity="1.000000" />
<path d="M 356.892578 46.335938 L 356.892578 45.412109 L 363.729980 45.412109 L 363.729980 46.335938 Z " fill="#fff" fill-opacity="1.000000" />
<path d="M 363.892578 46.335938 L 363.892578 45.412109 L 370.729980 45.412109 L 370.729980 46.335938 Z " fill="#fff" fill-opacity="1.000000" />
<path d="M 370.892578 46.335938 L 370.892578 45.412109 L 377.729980 45.412109 L 377.729980 46.335938 Z " fill="#fff" fill-opacity="1.000000" />
<path d="M 377.892578 46.335938 L 377.892578 45.412109 L 384.729980 45.412109 L 384.729980 46.335938 Z " fill="#fff" fill-opacity="1.000000" />
<path d="M 384.892578 46.335938 L 384.892578 45.412109 L 391.729980 45.412109 L 391.729980 46.335938 Z " fill="#fff" fill-opacity="1.000000" />
<path d="M 391.892578 46.335938 L 391.892578 45.412109 L 398.729980 45.412109 L 398.729980 46.335938 Z " fill="#fff" fill-opacity="1.000000" />
<path d="M 398.892578 46.335938 L 398.892578 45.412109 L 405.729980 45.412109 L 405.729980 46.335938 Z " fill="#fff" fill-opacity="1.000000" />
<path d="M 405.892578 46.335938 L 405.892578 45.412109 L 412.729980 45.412109 L 412.729980 46.335938 Z " fill="#fff" fill-opacity="1.000000" />
<path d="M 412.892578 46.335938 L 412.892578 45.412109 L 419.729980 45.412109 L 419.729980 46.335938 Z " fill="#fff" fill-opacity="1.000000" />
<path d="M 419.892578 46.335938 L 419.892578 45.412109 L 426.729980 45.412109 L 426.729980 46.335938 Z " fill="#fff" fill-opacity="1.000000" />
<path d="M 426.892578 46.335938 L 426.892578 45.412109 L 433.729980 45.412109 L 433.729980 46.335938 Z " fill="#fff" fill-opacity="1.000000" />
<path d="M 433.892578 46.335938 L 433.892578 45.412109 L 440.729980 45.412109 L 440.729980 46.335938 Z " fill="#fff" fill-opacity="1.000000" />
<path d="M 440.892578 46.335938 L 440.892578 45.412109 L 447.729980 45.412109 L 447.729980 46.335938 Z " fill="#fff" fill-opacity="1.000000" />
<path d="M 447.892578 46.335938 L 447.892578 45.412109 L 454.729980 45.412109 L 454.729980 46.335938 Z " fill="#fff" fill-opacity="1.000000" />
<path d="M 454.892578 46.335938 L 454.892578 45.412109 L 461.729980 45.412109 L 461.729980 46.335938 Z " fill="#fff" fill-opacity="1.000000" />
<path d="M 461.892578 46.335938 L 461.892578 45.412109 L 464.878906 45.412109 L 464.878906 38.300781 L 465.738281 38.300781 L 465.738281 46.335938 Z " fill="#fff" fill-opacity="1.000000" />
<path d="M 50.079590 27.980957 L 54.532227 27.980957 L 54.532227 28.894043 L 52.851074 28.894043 L 52.851074 35.086914 L 54.532227 35.086914 L 54.532227 36.000000 L 50.079590 36.000000 L 50.079590 35.086914 L 51.760742 35.086914 L 51.760742 28.894043 L 50.079590 28.894043 Z " fill="#fff" fill-opacity="1.000000" />
<path d="M 60.608398 30.752441 L 60.608398 27.642578 L 61.596680 27.642578 L 61.596680 36.000000 L 60.608398 36.000000 L 60.608398 35.242676 Q 60.361328 35.688477 59.950439 35.922119 Q 59.539551 36.155762 59.002441 36.155762 Q 57.912109 36.155762 57.286377 35.309814 Q 56.660645 34.463867 56.660645 32.976074 Q 56.660645 31.509766 57.289062 30.674561 Q 57.917480 29.839355 59.002441 29.839355 Q 59.544922 29.839355 59.958496 30.072998 Q 60.372070 30.306641 60.608398 30.752441 Z M 57.702637 32.997559 Q 57.702637 34.146973 58.067871 34.732422 Q 58.433105 35.317871 59.147461 35.317871 Q 59.861816 35.317871 60.235107 34.727051 Q 60.608398 34.136230 60.608398 32.997559 Q 60.608398 31.853516 60.235107 31.265381 Q 59.861816 30.677246 59.147461 30.677246 Q 58.433105 30.677246 58.067871 31.262695 Q 57.702637 31.848145 57.702637 32.997559 Z " fill="#fff" fill-opacity="1.000000" />
<path d="M 66.861816 33.824707 Q 66.861816 34.490723 67.106201 34.829102 Q 67.350586 35.167480 67.828613 35.167480 L 68.983398 35.167480 L 68.983398 36.000000 L 67.731934 36.000000 Q 66.845703 36.000000 66.359619 35.433350 Q 65.873535 34.866699 65.873535 33.824707 L 65.873535 28.383789 L 64.289062 28.383789 L 64.289062 27.610352 L 66.861816 27.610352 Z " fill="#fff" fill-opacity="1.000000" />
<path d="M 76.015625 32.498047 L 76.015625 32.981445 L 71.734863 32.981445 L 71.734863 33.013672 Q 71.691895 34.243652 72.204834 34.780762 Q 72.717773 35.317871 73.652344 35.317871 Q 74.125000 35.317871 74.640625 35.167480 Q 75.156250 35.017090 75.741699 34.710938 L 75.741699 35.693848 Q 75.177734 35.924805 74.654053 36.040283 Q 74.130371 36.155762 73.641602 36.155762 Q 72.239746 36.155762 71.450195 35.315186 Q 70.660645 34.474609 70.660645 32.997559 Q 70.660645 31.558105 71.434082 30.698730 Q 72.207520 29.839355 73.496582 29.839355 Q 74.645996 29.839355 75.309326 30.618164 Q 75.972656 31.396973 76.015625 32.498047 Z M 75.027344 32.208008 Q 74.962891 31.584961 74.573486 31.131104 Q 74.184082 30.677246 73.453613 30.677246 Q 72.739258 30.677246 72.277344 31.149902 Q 71.815430 31.622559 71.772461 32.213379 Z " fill="#fff" fill-opacity="1.000000" />
<path d="M 128.878906 39.319336 L 128.878906 25.300781 L 129.738281 25.300781 L 129.738281 39.319336 Z " fill="#fff" fill-opacity="1.000000" />
<path d="M 132.892578 33.335938 L 132.892578 32.412109 L 139.729980 32.412109 L 139.729980 33.335938 Z " fill="#fff" fill-opacity="1.000000" />
<path d="M 139.892578 33.335938 L 139.892578 32.412109 L 146.729980 32.412109 L 146.729980 33.335938 Z " fill="#fff" fill-opacity="1.000000" />
<path d="M 146.892578 33.335938 L 146.892578 32.412109 L 153.729980 32.412109 L 153.729980 33.335938 Z " fill="#fff" fill-opacity="1.000000" />
<path d="M 153.892578 33.335938 L 153.892578 32.412109 L 160.729980 32.412109 L 160.729980 33.335938 Z " fill="#fff" fill-opacity="1.000000" />
<path d="M 161.032227 36.418945 L 161.032227 29.866211 L 167.590332 33.142578 Z " fill="#fff" fill-opacity="1.000000" />
<path d="M 170.878906 39.319336 L 170.878906 25.300781 L 171.738281 25.300781 L 171.738281 39.319336 Z " fill="#fff" fill-opacity="1.000000" />
<path d="M 215.435547 28.254883 L 215.435547 29.355957 Q 214.941406 29.039062 214.444580 28.877930 Q 213.947754 28.716797 213.442871 28.716797 Q 212.674805 28.716797 212.229004 29.073975 Q 211.783203 29.431152 211.783203 30.038086 Q 211.783203 30.569824 212.075928 30.849121 Q 212.368652 31.128418 213.168945 31.316406 L 213.738281 31.445312 Q 214.866211 31.708496 215.381836 32.272461 Q 215.897461 32.836426 215.897461 33.808594 Q 215.897461 34.952637 215.188477 35.554199 Q 214.479492 36.155762 213.125977 36.155762 Q 212.562012 36.155762 211.992676 36.034912 Q 211.423340 35.914062 210.848633 35.672363 L 210.848633 34.517578 Q 211.466309 34.909668 212.016846 35.092285 Q 212.567383 35.274902 213.125977 35.274902 Q 213.947754 35.274902 214.404297 34.906982 Q 214.860840 34.539062 214.860840 33.878418 Q 214.860840 33.276855 214.546631 32.959961 Q 214.232422 32.643066 213.453613 32.471191 L 212.873535 32.336914 Q 211.756348 32.084473 211.251465 31.574219 Q 210.746582 31.063965 210.746582 30.204590 Q 210.746582 29.130371 211.468994 28.483154 Q 212.191406 27.835938 213.389160 27.835938 Q 213.851074 27.835938 214.361328 27.940674 Q 214.871582 28.045410 215.435547 28.254883 Z " fill="#fff" fill-opacity="1.000000" />
<path d="M 220.297852 28.276367 L 220.297852 29.984375 L 222.542969 29.984375 L 222.542969 30.752441 L 220.297852 30.752441 L 220.297852 34.018066 Q 220.297852 34.684082 220.550293 34.947266 Q 220.802734 35.210449 221.431152 35.210449 L 222.542969 35.210449 L 222.542969 36.000000 L 221.334473 36.000000 Q 220.222656 36.000000 219.766113 35.554199 Q 219.309570 35.108398 219.309570 34.018066 L 219.309570 30.752441 L 217.703613 30.752441 L 217.703613 29.984375 L 219.309570 29.984375 L 219.309570 28.276367 Z " fill="#fff" fill-opacity="1.000000" />
<path d="M 227.770508 32.976074 L 227.442871 32.976074 Q 226.578125 32.976074 226.140381 33.279541 Q 225.702637 33.583008 225.702637 34.184570 Q 225.702637 34.727051 226.030273 35.027832 Q 226.357910 35.328613 226.937988 35.328613 Q 227.754395 35.328613 228.221680 34.761963 Q 228.688965 34.195312 228.694336 33.196289 L 228.694336 32.976074 Z M 229.687988 32.567871 L 229.687988 36.000000 L 228.694336 36.000000 L 228.694336 35.108398 Q 228.377441 35.645508 227.896729 35.900635 Q 227.416016 36.155762 226.728516 36.155762 Q 225.810059 36.155762 225.262207 35.637451 Q 224.714355 35.119141 224.714355 34.249023 Q 224.714355 33.244629 225.388428 32.723633 Q 226.062500 32.202637 227.367676 32.202637 L 228.694336 32.202637 L 228.694336 32.046875 Q 228.688965 31.327148 228.329102 31.002197 Q 227.969238 30.677246 227.179688 30.677246 Q 226.674805 30.677246 226.159180 30.822266 Q 225.643555 30.967285 225.154785 31.246582 L 225.154785 30.258301 Q 225.702637 30.048828 226.204834 29.944092 Q 226.707031 29.839355 227.179688 29.839355 Q 227.926270 29.839355 228.455322 30.059570 Q 228.984375 30.279785 229.312012 30.720215 Q 229.516113 30.988770 229.602051 31.383545 Q 229.687988 31.778320 229.687988 32.567871 Z " fill="#fff" fill-opacity="1.000000" />
<path d="M 235.608398 32.943848 Q 235.608398 31.832031 235.245850 31.254639 Q 234.883301 30.677246 234.190430 30.677246 Q 233.465332 30.677246 233.083984 31.254639 Q 232.702637 31.832031 232.702637 32.943848 Q 232.702637 34.055664 233.086670 34.638428 Q 233.470703 35.221191 234.201172 35.221191 Q 234.883301 35.221191 235.245850 34.635742 Q 235.608398 34.050293 235.608398 32.943848 Z M 236.596680 35.613281 Q 236.596680 36.966797 235.957520 37.665039 Q 235.318359 38.363281 234.077637 38.363281 Q 233.669434 38.363281 233.223633 38.288086 Q 232.777832 38.212891 232.332031 38.067871 L 232.332031 37.090332 Q 232.858398 37.337402 233.288086 37.455566 Q 233.717773 37.573730 234.077637 37.573730 Q 234.877930 37.573730 235.243164 37.138672 Q 235.608398 36.703613 235.608398 35.758301 L 235.608398 35.715332 L 235.608398 35.043945 Q 235.372070 35.548828 234.963867 35.795898 Q 234.555664 36.042969 233.970215 36.042969 Q 232.917480 36.042969 232.289062 35.199707 Q 231.660645 34.356445 231.660645 32.943848 Q 231.660645 31.525879 232.289062 30.682617 Q 232.917480 29.839355 233.970215 29.839355 Q 234.550293 29.839355 234.953125 30.070312 Q 235.355957 30.301270 235.608398 30.784668 L 235.608398 30.005859 L 236.596680 30.005859 Z " fill="#fff" fill-opacity="1.000000" />
<path d="M 239.697266 30.005859 L 242.227051 30.005859 L 242.227051 35.231934 L 244.187500 35.231934 L 244.187500 36.000000 L 239.278320 36.000000 L 239.278320 35.231934 L 241.238770 35.231934 L 241.238770 30.773926 L 239.697266 30.773926 Z M 241.238770 27.669434 L 242.227051 27.669434 L 242.227051 28.915527 L 241.238770 28.915527 Z " fill="#fff" fill-opacity="1.000000" />
<path d="M 250.645020 32.272461 L 250.645020 36.000000 L 249.651367 36.000000 L 249.651367 32.272461 Q 249.651367 31.461426 249.366699 31.080078 Q 249.082031 30.698730 248.475098 30.698730 Q 247.782227 30.698730 247.408936 31.190186 Q 247.035645 31.681641 247.035645 32.600098 L 247.035645 36.000000 L 246.047363 36.000000 L 246.047363 29.984375 L 247.035645 29.984375 L 247.035645 30.886719 Q 247.298828 30.371094 247.750000 30.105225 Q 248.201172 29.839355 248.818848 29.839355 Q 249.737305 29.839355 250.191162 30.443604 Q 250.645020 31.047852 250.645020 32.272461 Z " fill="#fff" fill-opacity="1.000000" />
<path d="M 256.608398 32.943848 Q 256.608398 31.832031 256.245850 31.254639 Q 255.883301 30.677246 255.190430 30.677246 Q 254.465332 30.677246 254.083984 31.254639 Q 253.702637 31.832031 253.702637 32.943848 Q 253.702637 34.055664 254.086670 34.638428 Q 254.470703 35.221191 255.201172 35.221191 Q 255.883301 35.221191 256.245850 34.635742 Q 256.608398 34.050293 256.608398 32.943848 Z M 257.596680 35.613281 Q 257.596680 36.966797 256.957520 37.665039 Q 256.318359 38.363281 255.077637 38.363281 Q 254.669434 38.363281 254.223633 38.288086 Q 253.777832 38.212891 253.332031 38.067871 L 253.332031 37.090332 Q 253.858398 37.337402 254.288086 37.455566 Q 254.717773 37.573730 255.077637 37.573730 Q 255.877930 37.573730 256.243164 37.138672 Q 256.608398 36.703613 256.608398 35.758301 L 256.608398 35.715332 L 256.608398 35.043945 Q 256.372070 35.548828 255.963867 35.795898 Q 255.555664 36.042969 254.970215 36.042969 Q 253.917480 36.042969 253.289062 35.199707 Q 252.660645 34.356445 252.660645 32.943848 Q 252.660645 31.525879 253.289062 30.682617 Q 253.917480 29.839355 254.970215 29.839355 Q 255.550293 29.839355 255.953125 30.070312 Q 256.355957 30.301270 256.608398 30.784668 L 256.608398 30.005859 L 257.596680 30.005859 Z " fill="#fff" fill-opacity="1.000000" />
<path d="M 296.878906 39.319336 L 296.878906 25.300781 L 297.738281 25.300781 L 297.738281 39.319336 Z " fill="#fff" fill-opacity="1.000000" />
<path d="M 300.892578 33.335938 L 300.892578 32.412109 L 307.729980 32.412109 L 307.729980 33.335938 Z " fill="#fff" fill-opacity="1.000000" />
<path d="M 307.892578 33.335938 L 307.892578 32.412109 L 314.729980 32.412109 L 314.729980 33.335938 Z " fill="#fff" fill-opacity="1.000000" />
<path d="M 314.892578 33.335938 L 314.892578 32.412109 L 321.729980 32.412109 L 321.729980 33.335938 Z " fill="#fff" fill-opacity="1.000000" />
<path d="M 321.892578 33.335938 L 321.892578 32.412109 L 328.729980 32.412109 L 328.729980 33.335938 Z " fill="#fff" fill-opacity="1.000000" />
<path d="M 329.032227 36.418945 L 329.032227 29.866211 L 335.590332 33.142578 Z " fill="#fff" fill-opacity="1.000000" />
<path d="M 338.878906 39.319336 L 338.878906 25.300781 L 339.738281 25.300781 L 339.738281 39.319336 Z " fill="#fff" fill-opacity="1.000000" />
<path d="M 365.079590 27.980957 L 369.532227 27.980957 L 369.532227 28.894043 L 367.851074 28.894043 L 367.851074 35.086914 L 369.532227 35.086914 L 369.532227 36.000000 L 365.079590 36.000000 L 365.079590 35.086914 L 366.760742 35.086914 L 366.760742 28.894043 L 365.079590 28.894043 Z " fill="#fff" fill-opacity="1.000000" />
<path d="M 376.645020 32.272461 L 376.645020 36.000000 L 375.651367 36.000000 L 375.651367 32.272461 Q 375.651367 31.461426 375.366699 31.080078 Q 375.082031 30.698730 374.475098 30.698730 Q 373.782227 30.698730 373.408936 31.190186 Q 373.035645 31.681641 373.035645 32.600098 L 373.035645 36.000000 L 372.047363 36.000000 L 372.047363 29.984375 L 373.035645 29.984375 L 373.035645 30.886719 Q 373.298828 30.371094 373.750000 30.105225 Q 374.201172 29.839355 374.818848 29.839355 Q 375.737305 29.839355 376.191162 30.443604 Q 376.645020 31.047852 376.645020 32.272461 Z " fill="#fff" fill-opacity="1.000000" />
<path d="M 381.297852 28.276367 L 381.297852 29.984375 L 383.542969 29.984375 L 383.542969 30.752441 L 381.297852 30.752441 L 381.297852 34.018066 Q 381.297852 34.684082 381.550293 34.947266 Q 381.802734 35.210449 382.431152 35.210449 L 383.542969 35.210449 L 383.542969 36.000000 L 382.334473 36.000000 Q 381.222656 36.000000 380.766113 35.554199 Q 380.309570 35.108398 380.309570 34.018066 L 380.309570 30.752441 L 378.703613 30.752441 L 378.703613 29.984375 L 380.309570 29.984375 L 380.309570 28.276367 Z " fill="#fff" fill-opacity="1.000000" />
<path d="M 391.015625 32.498047 L 391.015625 32.981445 L 386.734863 32.981445 L 386.734863 33.013672 Q 386.691895 34.243652 387.204834 34.780762 Q 387.717773 35.317871 388.652344 35.317871 Q 389.125000 35.317871 389.640625 35.167480 Q 390.156250 35.017090 390.741699 34.710938 L 390.741699 35.693848 Q 390.177734 35.924805 389.654053 36.040283 Q 389.130371 36.155762 388.641602 36.155762 Q 387.239746 36.155762 386.450195 35.315186 Q 385.660645 34.474609 385.660645 32.997559 Q 385.660645 31.558105 386.434082 30.698730 Q 387.207520 29.839355 388.496582 29.839355 Q 389.645996 29.839355 390.309326 30.618164 Q 390.972656 31.396973 391.015625 32.498047 Z M 390.027344 32.208008 Q 389.962891 31.584961 389.573486 31.131104 Q 389.184082 30.677246 388.453613 30.677246 Q 387.739258 30.677246 387.277344 31.149902 Q 386.815430 31.622559 386.772461 32.213379 Z " fill="#fff" fill-opacity="1.000000" />
<path d="M 398.203613 31.225098 Q 397.886719 30.978027 397.559082 30.865234 Q 397.231445 30.752441 396.839355 30.752441 Q 395.915527 30.752441 395.426758 31.332520 Q 394.937988 31.912598 394.937988 33.008301 L 394.937988 36.000000 L 393.944336 36.000000 L 393.944336 29.984375 L 394.937988 29.984375 L 394.937988 31.160645 Q 395.185059 30.521484 395.697998 30.180420 Q 396.210938 29.839355 396.914551 29.839355 Q 397.279785 29.839355 397.596680 29.930664 Q 397.913574 30.021973 398.203613 30.215332 Z " fill="#fff" fill-opacity="1.000000" />
<path d="M 402.770508 32.976074 L 402.442871 32.976074 Q 401.578125 32.976074 401.140381 33.279541 Q 400.702637 33.583008 400.702637 34.184570 Q 400.702637 34.727051 401.030273 35.027832 Q 401.357910 35.328613 401.937988 35.328613 Q 402.754395 35.328613 403.221680 34.761963 Q 403.688965 34.195312 403.694336 33.196289 L 403.694336 32.976074 Z M 404.687988 32.567871 L 404.687988 36.000000 L 403.694336 36.000000 L 403.694336 35.108398 Q 403.377441 35.645508 402.896729 35.900635 Q 402.416016 36.155762 401.728516 36.155762 Q 400.810059 36.155762 400.262207 35.637451 Q 399.714355 35.119141 399.714355 34.249023 Q 399.714355 33.244629 400.388428 32.723633 Q 401.062500 32.202637 402.367676 32.202637 L 403.694336 32.202637 L 403.694336 32.046875 Q 403.688965 31.327148 403.329102 31.002197 Q 402.969238 30.677246 402.179688 30.677246 Q 401.674805 30.677246 401.159180 30.822266 Q 400.643555 30.967285 400.154785 31.246582 L 400.154785 30.258301 Q 400.702637 30.048828 401.204834 29.944092 Q 401.707031 29.839355 402.179688 29.839355 Q 402.926270 29.839355 403.455322 30.059570 Q 403.984375 30.279785 404.312012 30.720215 Q 404.516113 30.988770 404.602051 31.383545 Q 404.687988 31.778320 404.687988 32.567871 Z " fill="#fff" fill-opacity="1.000000" />
<path d="M 411.698730 35.693848 Q 411.301270 35.924805 410.879639 36.040283 Q 410.458008 36.155762 410.017578 36.155762 Q 408.621094 36.155762 407.834229 35.317871 Q 407.047363 34.479980 407.047363 32.997559 Q 407.047363 31.515137 407.834229 30.677246 Q 408.621094 29.839355 410.017578 29.839355 Q 410.452637 29.839355 410.866211 29.952148 Q 411.279785 30.064941 411.698730 30.301270 L 411.698730 31.337891 Q 411.306641 30.988770 410.911865 30.833008 Q 410.517090 30.677246 410.017578 30.677246 Q 409.088379 30.677246 408.588867 31.278809 Q 408.089355 31.880371 408.089355 32.997559 Q 408.089355 34.109375 408.591553 34.713623 Q 409.093750 35.317871 410.017578 35.317871 Q 410.533203 35.317871 410.941406 35.159424 Q 411.349609 35.000977 411.698730 34.667969 Z " fill="#fff" fill-opacity="1.000000" />
<path d="M 416.297852 28.276367 L 416.297852 29.984375 L 418.542969 29.984375 L 418.542969 30.752441 L 416.297852 30.752441 L 416.297852 34.018066 Q 416.297852 34.684082 416.550293 34.947266 Q 416.802734 35.210449 417.431152 35.210449 L 418.542969 35.210449 L 418.542969 36.000000 L 417.334473 36.000000 Q 416.222656 36.000000 415.766113 35.554199 Q 415.309570 35.108398 415.309570 34.018066 L 415.309570 30.752441 L 413.703613 30.752441 L 413.703613 29.984375 L 415.309570 29.984375 L 415.309570 28.276367 Z " fill="#fff" fill-opacity="1.000000" />
<path d="M 421.697266 30.005859 L 424.227051 30.005859 L 424.227051 35.231934 L 426.187500 35.231934 L 426.187500 36.000000 L 421.278320 36.000000 L 421.278320 35.231934 L 423.238770 35.231934 L 423.238770 30.773926 L 421.697266 30.773926 Z M 423.238770 27.669434 L 424.227051 27.669434 L 424.227051 28.915527 L 423.238770 28.915527 Z " fill="#fff" fill-opacity="1.000000" />
<path d="M 427.537109 29.984375 L 428.562988 29.984375 L 430.308594 35.033203 L 432.059570 29.984375 L 433.085449 29.984375 L 430.947754 36.000000 L 429.674805 36.000000 Z " fill="#fff" fill-opacity="1.000000" />
<path d="M 440.015625 32.498047 L 440.015625 32.981445 L 435.734863 32.981445 L 435.734863 33.013672 Q 435.691895 34.243652 436.204834 34.780762 Q 436.717773 35.317871 437.652344 35.317871 Q 438.125000 35.317871 438.640625 35.167480 Q 439.156250 35.017090 439.741699 34.710938 L 439.741699 35.693848 Q 439.177734 35.924805 438.654053 36.040283 Q 438.130371 36.155762 437.641602 36.155762 Q 436.239746 36.155762 435.450195 35.315186 Q 434.660645 34.474609 434.660645 32.997559 Q 434.660645 31.558105 435.434082 30.698730 Q 436.207520 29.839355 437.496582 29.839355 Q 438.645996 29.839355 439.309326 30.618164 Q 439.972656 31.396973 440.015625 32.498047 Z M 439.027344 32.208008 Q 438.962891 31.584961 438.573486 31.131104 Q 438.184082 30.677246 437.453613 30.677246 Q 436.739258 30.677246 436.277344 31.149902 Q 435.815430 31.622559 435.772461 32.213379 Z " fill="#fff" fill-opacity="1.000000" />
<path d="M 464.878906 39.319336 L 464.878906 25.300781 L 465.738281 25.300781 L 465.738281 39.319336 Z " fill="#fff" fill-opacity="1.000000" />
<path d="M 6.892578 20.335938 L 6.892578 19.412109 L 13.729980 19.412109 L 13.729980 20.335938 Z " fill="#fff" fill-opacity="1.000000" />
<path d="M 13.892578 20.335938 L 13.892578 19.412109 L 20.729980 19.412109 L 20.729980 20.335938 Z " fill="#fff" fill-opacity="1.000000" />
<path d="M 20.892578 20.335938 L 20.892578 19.412109 L 27.729980 19.412109 L 27.729980 20.335938 Z " fill="#fff" fill-opacity="1.000000" />
<path d="M 27.892578 20.335938 L 27.892578 19.412109 L 34.729980 19.412109 L 34.729980 20.335938 Z " fill="#fff" fill-opacity="1.000000" />
<path d="M 34.892578 20.335938 L 34.892578 19.412109 L 41.729980 19.412109 L 41.729980 20.335938 Z " fill="#fff" fill-opacity="1.000000" />
<path d="M 41.892578 20.335938 L 41.892578 19.412109 L 48.729980 19.412109 L 48.729980 20.335938 Z " fill="#fff" fill-opacity="1.000000" />
<path d="M 48.892578 20.335938 L 48.892578 19.412109 L 55.729980 19.412109 L 55.729980 20.335938 Z " fill="#fff" fill-opacity="1.000000" />
<path d="M 55.892578 20.335938 L 55.892578 19.412109 L 62.729980 19.412109 L 62.729980 20.335938 Z " fill="#fff" fill-opacity="1.000000" />
<path d="M 62.892578 20.335938 L 62.892578 19.412109 L 69.729980 19.412109 L 69.729980 20.335938 Z " fill="#fff" fill-opacity="1.000000" />
<path d="M 69.892578 20.335938 L 69.892578 19.412109 L 76.729980 19.412109 L 76.729980 20.335938 Z " fill="#fff" fill-opacity="1.000000" />
<path d="M 76.892578 20.335938 L 76.892578 19.412109 L 83.729980 19.412109 L 83.729980 20.335938 Z " fill="#fff" fill-opacity="1.000000" />
<path d="M 83.892578 20.335938 L 83.892578 19.412109 L 90.729980 19.412109 L 90.729980 20.335938 Z " fill="#fff" fill-opacity="1.000000" />
<path d="M 90.892578 20.335938 L 90.892578 19.412109 L 97.729980 19.412109 L 97.729980 20.335938 Z " fill="#fff" fill-opacity="1.000000" />
<path d="M 97.892578 20.335938 L 97.892578 19.412109 L 104.729980 19.412109 L 104.729980 20.335938 Z " fill="#fff" fill-opacity="1.000000" />
<path d="M 104.892578 20.335938 L 104.892578 19.412109 L 111.729980 19.412109 L 111.729980 20.335938 Z " fill="#fff" fill-opacity="1.000000" />
<path d="M 111.892578 20.335938 L 111.892578 19.412109 L 118.729980 19.412109 L 118.729980 20.335938 Z " fill="#fff" fill-opacity="1.000000" />
<path d="M 118.892578 20.335938 L 118.892578 19.412109 L 125.729980 19.412109 L 125.729980 20.335938 Z " fill="#fff" fill-opacity="1.000000" />
<path d="M 128.878906 26.319336 L 128.878906 20.335938 L 125.892578 20.335938 L 125.892578 19.412109 L 129.738281 19.412109 L 129.738281 26.319336 Z " fill="#fff" fill-opacity="1.000000" />
<path d="M 170.878906 26.319336 L 170.878906 19.412109 L 174.729980 19.412109 L 174.729980 20.335938 L 171.738281 20.335938 L 171.738281 26.319336 Z " fill="#fff" fill-opacity="1.000000" />
<path d="M 174.892578 20.335938 L 174.892578 19.412109 L 181.729980 19.412109 L 181.729980 20.335938 Z " fill="#fff" fill-opacity="1.000000" />
<path d="M 181.892578 20.335938 L 181.892578 19.412109 L 188.729980 19.412109 L 188.729980 20.335938 Z " fill="#fff" fill-opacity="1.000000" />
<path d="M 188.892578 20.335938 L 188.892578 19.412109 L 195.729980 19.412109 L 195.729980 20.335938 Z " fill="#fff" fill-opacity="1.000000" />
<path d="M 195.892578 20.335938 L 195.892578 19.412109 L 202.729980 19.412109 L 202.729980 20.335938 Z " fill="#fff" fill-opacity="1.000000" />
<path d="M 202.892578 20.335938 L 202.892578 19.412109 L 209.729980 19.412109 L 209.729980 20.335938 Z " fill="#fff" fill-opacity="1.000000" />
<path d="M 209.892578 20.335938 L 209.892578 19.412109 L 216.729980 19.412109 L 216.729980 20.335938 Z " fill="#fff" fill-opacity="1.000000" />
<path d="M 216.892578 20.335938 L 216.892578 19.412109 L 223.729980 19.412109 L 223.729980 20.335938 Z " fill="#fff" fill-opacity="1.000000" />
<path d="M 223.892578 20.335938 L 223.892578 19.412109 L 230.729980 19.412109 L 230.729980 20.335938 Z " fill="#fff" fill-opacity="1.000000" />
<path d="M 230.892578 20.335938 L 230.892578 19.412109 L 237.729980 19.412109 L 237.729980 20.335938 Z " fill="#fff" fill-opacity="1.000000" />
<path d="M 237.892578 20.335938 L 237.892578 19.412109 L 244.729980 19.412109 L 244.729980 20.335938 Z " fill="#fff" fill-opacity="1.000000" />
<path d="M 244.892578 20.335938 L 244.892578 19.412109 L 251.729980 19.412109 L 251.729980 20.335938 Z " fill="#fff" fill-opacity="1.000000" />
<path d="M 251.892578 20.335938 L 251.892578 19.412109 L 258.729980 19.412109 L 258.729980 20.335938 Z " fill="#fff" fill-opacity="1.000000" />
<path d="M 258.892578 20.335938 L 258.892578 19.412109 L 265.729980 19.412109 L 265.729980 20.335938 Z " fill="#fff" fill-opacity="1.000000" />
<path d="M 265.892578 20.335938 L 265.892578 19.412109 L 272.729980 19.412109 L 272.729980 20.335938 Z " fill="#fff" fill-opacity="1.000000" />
<path d="M 272.892578 20.335938 L 272.892578 19.412109 L 279.729980 19.412109 L 279.729980 20.335938 Z " fill="#fff" fill-opacity="1.000000" />
<path d="M 279.892578 20.335938 L 279.892578 19.412109 L 286.729980 19.412109 L 286.729980 20.335938 Z " fill="#fff" fill-opacity="1.000000" />
<path d="M 286.892578 20.335938 L 286.892578 19.412109 L 293.729980 19.412109 L 293.729980 20.335938 Z " fill="#fff" fill-opacity="1.000000" />
<path d="M 296.878906 26.319336 L 296.878906 20.335938 L 293.892578 20.335938 L 293.892578 19.412109 L 297.738281 19.412109 L 297.738281 26.319336 Z " fill="#fff" fill-opacity="1.000000" />
<path d="M 306.698730 22.693848 Q 306.301270 22.924805 305.879639 23.040283 Q 305.458008 23.155762 305.017578 23.155762 Q 303.621094 23.155762 302.834229 22.317871 Q 302.047363 21.479980 302.047363 19.997559 Q 302.047363 18.515137 302.834229 17.677246 Q 303.621094 16.839355 305.017578 16.839355 Q 305.452637 16.839355 305.866211 16.952148 Q 306.279785 17.064941 306.698730 17.301270 L 306.698730 18.337891 Q 306.306641 17.988770 305.911865 17.833008 Q 305.517090 17.677246 305.017578 17.677246 Q 304.088379 17.677246 303.588867 18.278809 Q 303.089355 18.880371 303.089355 19.997559 Q 303.089355 21.109375 303.591553 21.713623 Q 304.093750 22.317871 305.017578 22.317871 Q 305.533203 22.317871 305.941406 22.159424 Q 306.349609 22.000977 306.698730 21.667969 Z " fill="#fff" fill-opacity="1.000000" />
<path d="M 311.770508 19.976074 L 311.442871 19.976074 Q 310.578125 19.976074 310.140381 20.279541 Q 309.702637 20.583008 309.702637 21.184570 Q 309.702637 21.727051 310.030273 22.027832 Q 310.357910 22.328613 310.937988 22.328613 Q 311.754395 22.328613 312.221680 21.761963 Q 312.688965 21.195312 312.694336 20.196289 L 312.694336 19.976074 Z M 313.687988 19.567871 L 313.687988 23.000000 L 312.694336 23.000000 L 312.694336 22.108398 Q 312.377441 22.645508 311.896729 22.900635 Q 311.416016 23.155762 310.728516 23.155762 Q 309.810059 23.155762 309.262207 22.637451 Q 308.714355 22.119141 308.714355 21.249023 Q 308.714355 20.244629 309.388428 19.723633 Q 310.062500 19.202637 311.367676 19.202637 L 312.694336 19.202637 L 312.694336 19.046875 Q 312.688965 18.327148 312.329102 18.002197 Q 311.969238 17.677246 311.179688 17.677246 Q 310.674805 17.677246 310.159180 17.822266 Q 309.643555 17.967285 309.154785 18.246582 L 309.154785 17.258301 Q 309.702637 17.048828 310.204834 16.944092 Q 310.707031 16.839355 311.179688 16.839355 Q 311.926270 16.839355 312.455322 17.059570 Q 312.984375 17.279785 313.312012 17.720215 Q 313.516113 17.988770 313.602051 18.383545 Q 313.687988 18.778320 313.687988 19.567871 Z " fill="#fff" fill-opacity="1.000000" />
<path d="M 318.861816 20.824707 Q 318.861816 21.490723 319.106201 21.829102 Q 319.350586 22.167480 319.828613 22.167480 L 320.983398 22.167480 L 320.983398 23.000000 L 319.731934 23.000000 Q 318.845703 23.000000 318.359619 22.433350 Q 317.873535 21.866699 317.873535 20.824707 L 317.873535 15.383789 L 316.289062 15.383789 L 316.289062 14.610352 L 318.861816 14.610352 Z " fill="#fff" fill-opacity="1.000000" />
<path d="M 325.861816 20.824707 Q 325.861816 21.490723 326.106201 21.829102 Q 326.350586 22.167480 326.828613 22.167480 L 327.983398 22.167480 L 327.983398 23.000000 L 326.731934 23.000000 Q 325.845703 23.000000 325.359619 22.433350 Q 324.873535 21.866699 324.873535 20.824707 L 324.873535 15.383789 L 323.289062 15.383789 L 323.289062 14.610352 L 325.861816 14.610352 Z " fill="#fff" fill-opacity="1.000000" />
<path d="M 338.878906 26.319336 L 338.878906 19.412109 L 342.729980 19.412109 L 342.729980 20.335938 L 339.738281 20.335938 L 339.738281 26.319336 Z " fill="#fff" fill-opacity="1.000000" />
<path d="M 342.892578 20.335938 L 342.892578 19.412109 L 349.729980 19.412109 L 349.729980 20.335938 Z " fill="#fff" fill-opacity="1.000000" />
<path d="M 349.892578 20.335938 L 349.892578 19.412109 L 356.729980 19.412109 L 356.729980 20.335938 Z " fill="#fff" fill-opacity="1.000000" />
<path d="M 356.892578 20.335938 L 356.892578 19.412109 L 363.729980 19.412109 L 363.729980 20.335938 Z " fill="#fff" fill-opacity="1.000000" />
<path d="M 363.892578 20.335938 L 363.892578 19.412109 L 370.729980 19.412109 L 370.729980 20.335938 Z " fill="#fff" fill-opacity="1.000000" />
<path d="M 370.892578 20.335938 L 370.892578 19.412109 L 377.729980 19.412109 L 377.729980 20.335938 Z " fill="#fff" fill-opacity="1.000000" />
<path d="M 377.892578 20.335938 L 377.892578 19.412109 L 384.729980 19.412109 L 384.729980 20.335938 Z " fill="#fff" fill-opacity="1.000000" />
<path d="M 384.892578 20.335938 L 384.892578 19.412109 L 391.729980 19.412109 L 391.729980 20.335938 Z " fill="#fff" fill-opacity="1.000000" />
<path d="M 391.892578 20.335938 L 391.892578 19.412109 L 398.729980 19.412109 L 398.729980 20.335938 Z " fill="#fff" fill-opacity="1.000000" />
<path d="M 398.892578 20.335938 L 398.892578 19.412109 L 405.729980 19.412109 L 405.729980 20.335938 Z " fill="#fff" fill-opacity="1.000000" />
<path d="M 405.892578 20.335938 L 405.892578 19.412109 L 412.729980 19.412109 L 412.729980 20.335938 Z " fill="#fff" fill-opacity="1.000000" />
<path d="M 412.892578 20.335938 L 412.892578 19.412109 L 419.729980 19.412109 L 419.729980 20.335938 Z " fill="#fff" fill-opacity="1.000000" />
<path d="M 419.892578 20.335938 L 419.892578 19.412109 L 426.729980 19.412109 L 426.729980 20.335938 Z " fill="#fff" fill-opacity="1.000000" />
<path d="M 426.892578 20.335938 L 426.892578 19.412109 L 433.729980 19.412109 L 433.729980 20.335938 Z " fill="#fff" fill-opacity="1.000000" />
<path d="M 433.892578 20.335938 L 433.892578 19.412109 L 440.729980 19.412109 L 440.729980 20.335938 Z " fill="#fff" fill-opacity="1.000000" />
<path d="M 440.892578 20.335938 L 440.892578 19.412109 L 447.729980 19.412109 L 447.729980 20.335938 Z " fill="#fff" fill-opacity="1.000000" />
<path d="M 447.892578 20.335938 L 447.892578 19.412109 L 454.729980 19.412109 L 454.729980 20.335938 Z " fill="#fff" fill-opacity="1.000000" />
<path d="M 454.892578 20.335938 L 454.892578 19.412109 L 461.729980 19.412109 L 461.729980 20.335938 Z " fill="#fff" fill-opacity="1.000000" />
<path d="M 464.878906 26.319336 L 464.878906 20.335938 L 461.892578 20.335938 L 461.892578 19.412109 L 465.738281 19.412109 L 465.738281 26.319336 Z " fill="#fff" fill-opacity="1.000000" />
<path d="M 124.763184 9.715332 Q 124.349609 9.935547 123.914551 10.045654 Q 123.479492 10.155762 122.990723 10.155762 Q 121.449219 10.155762 120.597900 9.065430 Q 119.746582 7.975098 119.746582 5.998535 Q 119.746582 4.032715 120.603271 2.934326 Q 121.459961 1.835938 122.990723 1.835938 Q 123.479492 1.835938 123.914551 1.946045 Q 124.349609 2.056152 124.763184 2.276367 L 124.763184 3.388184 Q 124.365723 3.060547 123.909180 2.888672 Q 123.452637 2.716797 122.990723 2.716797 Q 121.932617 2.716797 121.406250 3.533203 Q 120.879883 4.349609 120.879883 5.998535 Q 120.879883 7.642090 121.406250 8.458496 Q 121.932617 9.274902 122.990723 9.274902 Q 123.463379 9.274902 123.917236 9.103027 Q 124.371094 8.931152 124.763184 8.603516 Z " fill="#fff" fill-opacity="1.000000" />
<path d="M 129.308594 4.677246 Q 128.556641 4.677246 128.169922 5.262695 Q 127.783203 5.848145 127.783203 6.997559 Q 127.783203 8.141602 128.169922 8.729736 Q 128.556641 9.317871 129.308594 9.317871 Q 130.065918 9.317871 130.452637 8.729736 Q 130.839355 8.141602 130.839355 6.997559 Q 130.839355 5.848145 130.452637 5.262695 Q 130.065918 4.677246 129.308594 4.677246 Z M 129.308594 3.839355 Q 130.560059 3.839355 131.223389 4.650391 Q 131.886719 5.461426 131.886719 6.997559 Q 131.886719 8.539062 131.226074 9.347412 Q 130.565430 10.155762 129.308594 10.155762 Q 128.057129 10.155762 127.396484 9.347412 Q 126.735840 8.539062 126.735840 6.997559 Q 126.735840 5.461426 127.396484 4.650391 Q 128.057129 3.839355 129.308594 3.839355 Z " fill="#fff" fill-opacity="1.000000" />
<path d="M 138.645020 6.272461 L 138.645020 10.000000 L 137.651367 10.000000 L 137.651367 6.272461 Q 137.651367 5.461426 137.366699 5.080078 Q 137.082031 4.698730 136.475098 4.698730 Q 135.782227 4.698730 135.408936 5.190186 Q 135.035645 5.681641 135.035645 6.600098 L 135.035645 10.000000 L 134.047363 10.000000 L 134.047363 3.984375 L 135.035645 3.984375 L 135.035645 4.886719 Q 135.298828 4.371094 135.750000 4.105225 Q 136.201172 3.839355 136.818848 3.839355 Q 137.737305 3.839355 138.191162 4.443604 Q 138.645020 5.047852 138.645020 6.272461 Z " fill="#fff" fill-opacity="1.000000" />
<path d="M 145.645020 6.272461 L 145.645020 10.000000 L 144.651367 10.000000 L 144.651367 6.272461 Q 144.651367 5.461426 144.366699 5.080078 Q 144.082031 4.698730 143.475098 4.698730 Q 142.782227 4.698730 142.408936 5.190186 Q 142.035645 5.681641 142.035645 6.600098 L 142.035645 10.000000 L 141.047363 10.000000 L 141.047363 3.984375 L 142.035645 3.984375 L 142.035645 4.886719 Q 142.298828 4.371094 142.750000 4.105225 Q 143.201172 3.839355 143.818848 3.839355 Q 144.737305 3.839355 145.191162 4.443604 Q 145.645020 5.047852 145.645020 6.272461 Z " fill="#fff" fill-opacity="1.000000" />
<path d="M 153.015625 6.498047 L 153.015625 6.981445 L 148.734863 6.981445 L 148.734863 7.013672 Q 148.691895 8.243652 149.204834 8.780762 Q 149.717773 9.317871 150.652344 9.317871 Q 151.125000 9.317871 151.640625 9.167480 Q 152.156250 9.017090 152.741699 8.710938 L 152.741699 9.693848 Q 152.177734 9.924805 151.654053 10.040283 Q 151.130371 10.155762 150.641602 10.155762 Q 149.239746 10.155762 148.450195 9.315186 Q 147.660645 8.474609 147.660645 6.997559 Q 147.660645 5.558105 148.434082 4.698730 Q 149.207520 3.839355 150.496582 3.839355 Q 151.645996 3.839355 152.309326 4.618164 Q 152.972656 5.396973 153.015625 6.498047 Z M 152.027344 6.208008 Q 151.962891 5.584961 151.573486 5.131104 Q 151.184082 4.677246 150.453613 4.677246 Q 149.739258 4.677246 149.277344 5.149902 Q 148.815430 5.622559 148.772461 6.213379 Z " fill="#fff" fill-opacity="1.000000" />
<path d="M 159.698730 9.693848 Q 159.301270 9.924805 158.879639 10.040283 Q 158.458008 10.155762 158.017578 10.155762 Q 156.621094 10.155762 155.834229 9.317871 Q 155.047363 8.479980 155.047363 6.997559 Q 155.047363 5.515137 155.834229 4.677246 Q 156.621094 3.839355 158.017578 3.839355 Q 158.452637 3.839355 158.866211 3.952148 Q 159.279785 4.064941 159.698730 4.301270 L 159.698730 5.337891 Q 159.306641 4.988770 158.911865 4.833008 Q 158.517090 4.677246 158.017578 4.677246 Q 157.088379 4.677246 156.588867 5.278809 Q 156.089355 5.880371 156.089355 6.997559 Q 156.089355 8.109375 156.591553 8.713623 Q 157.093750 9.317871 158.017578 9.317871 Q 158.533203 9.317871 158.941406 9.159424 Q 159.349609 9.000977 159.698730 8.667969 Z " fill="#fff" fill-opacity="1.000000" />
<path d="M 164.297852 2.276367 L 164.297852 3.984375 L 166.542969 3.984375 L 166.542969 4.752441 L 164.297852 4.752441 L 164.297852 8.018066 Q 164.297852 8.684082 164.550293 8.947266 Q 164.802734 9.210449 165.431152 9.210449 L 166.542969 9.210449 L 166.542969 10.000000 L 165.334473 10.000000 Q 164.222656 10.000000 163.766113 9.554199 Q 163.309570 9.108398 163.309570 8.018066 L 163.309570 4.752441 L 161.703613 4.752441 L 161.703613 3.984375 L 163.309570 3.984375 L 163.309570 2.276367 Z " fill="#fff" fill-opacity="1.000000" />
<path d="M 293.203613 5.225098 Q 292.886719 4.978027 292.559082 4.865234 Q 292.231445 4.752441 291.839355 4.752441 Q 290.915527 4.752441 290.426758 5.332520 Q 289.937988 5.912598 289.937988 7.008301 L 289.937988 10.000000 L 288.944336 10.000000 L 288.944336 3.984375 L 289.937988 3.984375 L 289.937988 5.160645 Q 290.185059 4.521484 290.697998 4.180420 Q 291.210938 3.839355 291.914551 3.839355 Q 292.279785 3.839355 292.596680 3.930664 Q 292.913574 4.021973 293.203613 4.215332 Z " fill="#fff" fill-opacity="1.000000" />
<path d="M 300.015625 6.498047 L 300.015625 6.981445 L 295.734863 6.981445 L 295.734863 7.013672 Q 295.691895 8.243652 296.204834 8.780762 Q 296.717773 9.317871 297.652344 9.317871 Q 298.125000 9.317871 298.640625 9.167480 Q 299.156250 9.017090 299.741699 8.710938 L 299.741699 9.693848 Q 299.177734 9.924805 298.654053 10.040283 Q 298.130371 10.155762 297.641602 10.155762 Q 296.239746 10.155762 295.450195 9.315186 Q 294.660645 8.474609 294.660645 6.997559 Q 294.660645 5.558105 295.434082 4.698730 Q 296.207520 3.839355 297.496582 3.839355 Q 298.645996 3.839355 299.309326 4.618164 Q 299.972656 5.396973 300.015625 6.498047 Z M 299.027344 6.208008 Q 298.962891 5.584961 298.573486 5.131104 Q 298.184082 4.677246 297.453613 4.677246 Q 296.739258 4.677246 296.277344 5.149902 Q 295.815430 5.622559 295.772461 6.213379 Z " fill="#fff" fill-opacity="1.000000" />
<path d="M 304.770508 6.976074 L 304.442871 6.976074 Q 303.578125 6.976074 303.140381 7.279541 Q 302.702637 7.583008 302.702637 8.184570 Q 302.702637 8.727051 303.030273 9.027832 Q 303.357910 9.328613 303.937988 9.328613 Q 304.754395 9.328613 305.221680 8.761963 Q 305.688965 8.195312 305.694336 7.196289 L 305.694336 6.976074 Z M 306.687988 6.567871 L 306.687988 10.000000 L 305.694336 10.000000 L 305.694336 9.108398 Q 305.377441 9.645508 304.896729 9.900635 Q 304.416016 10.155762 303.728516 10.155762 Q 302.810059 10.155762 302.262207 9.637451 Q 301.714355 9.119141 301.714355 8.249023 Q 301.714355 7.244629 302.388428 6.723633 Q 303.062500 6.202637 304.367676 6.202637 L 305.694336 6.202637 L 305.694336 6.046875 Q 305.688965 5.327148 305.329102 5.002197 Q 304.969238 4.677246 304.179688 4.677246 Q 303.674805 4.677246 303.159180 4.822266 Q 302.643555 4.967285 302.154785 5.246582 L 302.154785 4.258301 Q 302.702637 4.048828 303.204834 3.944092 Q 303.707031 3.839355 304.179688 3.839355 Q 304.926270 3.839355 305.455322 4.059570 Q 305.984375 4.279785 306.312012 4.720215 Q 306.516113 4.988770 306.602051 5.383545 Q 306.687988 5.778320 306.687988 6.567871 Z " fill="#fff" fill-opacity="1.000000" />
<path d="M 312.608398 4.752441 L 312.608398 1.642578 L 313.596680 1.642578 L 313.596680 10.000000 L 312.608398 10.000000 L 312.608398 9.242676 Q 312.361328 9.688477 311.950439 9.922119 Q 311.539551 10.155762 311.002441 10.155762 Q 309.912109 10.155762 309.286377 9.309814 Q 308.660645 8.463867 308.660645 6.976074 Q 308.660645 5.509766 309.289062 4.674561 Q 309.917480 3.839355 311.002441 3.839355 Q 311.544922 3.839355 311.958496 4.072998 Q 312.372070 4.306641 312.608398 4.752441 Z M 309.702637 6.997559 Q 309.702637 8.146973 310.067871 8.732422 Q 310.433105 9.317871 311.147461 9.317871 Q 311.861816 9.317871 312.235107 8.727051 Q 312.608398 8.136230 312.608398 6.997559 Q 312.608398 5.853516 312.235107 5.265381 Q 311.861816 4.677246 311.147461 4.677246 Q 310.433105 4.677246 310.067871 5.262695 Q 309.702637 5.848145 309.702637 6.997559 Z " fill="#fff" fill-opacity="1.000000" />
<path d="M 319.608398 8.066406 Q 319.361328 8.694824 318.979980 9.720703 Q 318.448242 11.138672 318.265625 11.450195 Q 318.018555 11.869141 317.647949 12.078613 Q 317.277344 12.288086 316.783203 12.288086 L 315.988281 12.288086 L 315.988281 11.460938 L 316.573730 11.460938 Q 317.008789 11.460938 317.255859 11.208496 Q 317.502930 10.956055 317.884277 9.903320 L 315.558594 3.984375 L 316.605957 3.984375 L 318.389160 8.689453 L 320.145508 3.984375 L 321.192871 3.984375 Z " fill="#fff" fill-opacity="1.000000" />
<path d="M 326.592285 1.116211 Q 325.877930 2.340820 325.526123 3.557373 Q 325.174316 4.773926 325.174316 6.009277 Q 325.174316 7.239258 325.526123 8.458496 Q 325.877930 9.677734 326.592285 10.913086 L 325.732910 10.913086 Q 324.921875 9.634766 324.524414 8.423584 Q 324.126953 7.212402 324.126953 6.009277 Q 324.126953 4.811523 324.524414 3.597656 Q 324.921875 2.383789 325.732910 1.116211 Z " fill="#fff" fill-opacity="1.000000" />
<path d="M 330.869141 1.116211 L 331.728516 1.116211 Q 332.539551 2.383789 332.937012 3.597656 Q 333.334473 4.811523 333.334473 6.009277 Q 333.334473 7.217773 332.937012 8.431641 Q 332.539551 9.645508 331.728516 10.913086 L 330.869141 10.913086 Q 331.583496 9.666992 331.935303 8.447754 Q 332.287109 7.228516 332.287109 6.009277 Q 332.287109 4.784668 331.935303 3.565430 Q 331.583496 2.346191 330.869141 1.116211 Z " fill="#fff" fill-opacity="1.000000" />
</svg>
