<?xml version="1.0" encoding="UTF-8" standalone="no"?>
<!DOCTYPE svg PUBLIC "-//W3C//DTD SVG 1.1//EN" "http://www.w3.org/Graphics/SVG/1.1/DTD/svg11.dtd">
<svg xmlns="http://www.w3.org/2000/svg" xmlns:xlink="http://www.w3.org/1999/xlink" xmlns:lucid="lucid" width="499" height="279"><g transform="translate(-340 -179)" lucid:page-tab-id="0_0"><path d="M0 0h1760v1360H0z" fill="#fff"/><path d="M440 200h180v60H440z" stroke="#000" stroke-width="2" fill="#fff"/><use xlink:href="#a" transform="matrix(1,0,0,1,445,205) translate(-0.375 28.6)"/><path d="M640 200h180v60H640z" stroke="#000" stroke-width="2" fill="#fff"/><use xlink:href="#b" transform="matrix(1,0,0,1,645,205) translate(11.125 28.6)"/><path d="M180 200h240v60H180z" fill="none"/><use xlink:href="#c" transform="matrix(1,0,0,1,185,205) translate(165.05 28.6)"/><path d="M180 340h240v60H180z" fill="none"/><use xlink:href="#d" transform="matrix(1,0,0,1,185,345) translate(165.1 28.6)"/><path d="M440 300h380v140H440z" stroke="#000" stroke-width="2" fill="#fff"/><use xlink:href="#e" transform="matrix(1,0,0,1,445,305) translate(100.8 122.80000000000001)"/><use xlink:href="#f" transform="matrix(1,0,0,1,445,305) translate(129.75 122.80000000000001)"/><use xlink:href="#g" transform="matrix(1,0,0,1,445,305) translate(213.3 122.80000000000001)"/><path d="M460 310h100v90H460z" stroke="#000" stroke-width="2" fill="#fff"/><use xlink:href="#h" transform="matrix(1,0,0,1,465,315) translate(15.049999999999997 32.8)"/><use xlink:href="#i" transform="matrix(1,0,0,1,465,315) translate(25 54.4)"/><path d="M580 310h100v90H580z" stroke="#000" stroke-width="2" fill="#fff"/><use xlink:href="#h" transform="matrix(1,0,0,1,585,315) translate(15.049999999999997 32.8)"/><use xlink:href="#j" transform="matrix(1,0,0,1,585,315) translate(25 54.4)"/><path d="M700 310h100v90H700z" stroke="#000" stroke-width="2" fill="#fff"/><use xlink:href="#h" transform="matrix(1,0,0,1,705,315) translate(15.049999999999997 32.8)"/><use xlink:href="#k" transform="matrix(1,0,0,1,705,315) translate(25 54.4)"/><path d="M510 310v-25h20v-25" stroke="#000" stroke-width="2" fill="none"/><path/><path d="M534.64 274.27h-9.28L530 260z"/><path d="M536 275.27h-12l4.95-15.27h2.1zm-9.26-2h6.52L530 263.24z"/><path d="M630 310v-24.5h-70V261" stroke="#000" stroke-width="2" fill="none"/><path/><path d="M564.64 275.27h-9.28L560 261z"/><path d="M566 276.27h-12l5.27-16.27h1.46zm-9.26-2h6.52L560 264.24z"/><path d="M750 310v-25h-20v-25" stroke="#000" stroke-width="2" fill="none"/><path/><path d="M734.64 274.27h-9.28L730 260z"/><path d="M736 275.27h-12l4.95-15.27h2.1zm-9.26-2h6.52L730 263.24z"/><defs><path d="M24-231v-30h32v30H24zM24 0v-190h32V0H24" id="l"/><path d="M117-194c89-4 53 116 60 194h-32v-121c0-31-8-49-39-48C34-167 62-67 57 0H25l-1-190h30c1 10-1 24 2 32 11-22 29-35 61-36" id="m"/><path d="M59-47c-2 24 18 29 38 22v24C64 9 27 4 27-40v-127H5v-23h24l9-43h21v43h35v23H59v120" id="n"/><path d="M100-194c63 0 86 42 84 106H49c0 40 14 67 53 68 26 1 43-12 49-29l28 8c-11 28-37 45-77 45C44 4 14-33 15-96c1-61 26-98 85-98zm52 81c6-60-76-77-97-28-3 7-6 17-6 28h103" id="o"/><path d="M114-163C36-179 61-72 57 0H25l-1-190h30c1 12-1 29 2 39 6-27 23-49 58-41v29" id="p"/><path d="M141-36C126-15 110 5 73 4 37 3 15-17 15-53c-1-64 63-63 125-63 3-35-9-54-41-54-24 1-41 7-42 31l-33-3c5-37 33-52 76-52 45 0 72 20 72 64v82c-1 20 7 32 28 27v20c-31 9-61-2-59-35zM48-53c0 20 12 33 32 33 41-3 63-29 60-74-43 2-92-5-92 41" id="q"/><path d="M96-169c-40 0-48 33-48 73s9 75 48 75c24 0 41-14 43-38l32 2c-6 37-31 61-74 61-59 0-76-41-82-99-10-93 101-131 147-64 4 7 5 14 7 22l-32 3c-4-21-16-35-41-35" id="r"/><path d="M108 0H70L1-190h34L89-25l56-165h34" id="s"/><path d="M16-82v-28h88v28H16" id="t"/><path d="M24 0v-261h32V0H24" id="u"/><path d="M84 4C-5 8 30-112 23-190h32v120c0 31 7 50 39 49 72-2 45-101 50-169h31l1 190h-30c-1-10 1-25-2-33-11 22-28 36-60 37" id="v"/><path d="M106-169C34-169 62-67 57 0H25v-261h32l-1 103c12-21 28-36 61-36 89 0 53 116 60 194h-32v-121c2-32-8-49-39-48" id="w"/><path d="M115-194c55 1 70 41 70 98S169 2 115 4C84 4 66-9 55-30l1 105H24l-1-265h31l2 30c10-21 28-34 59-34zm-8 174c40 0 45-34 45-75s-6-73-45-74c-42 0-51 32-51 76 0 43 10 73 51 73" id="x"/><path d="M85-194c31 0 48 13 60 33l-1-100h32l1 261h-30c-2-10 0-23-3-31C134-8 116 4 85 4 32 4 16-35 15-94c0-66 23-100 70-100zm9 24c-40 0-46 34-46 75 0 40 6 74 45 74 42 0 51-32 51-76 0-42-9-74-50-73" id="y"/><g id="a"><use transform="matrix(0.05,0,0,0.05,0,0)" xlink:href="#l"/><use transform="matrix(0.05,0,0,0.05,3.95,0)" xlink:href="#m"/><use transform="matrix(0.05,0,0,0.05,13.949999999999998,0)" xlink:href="#n"/><use transform="matrix(0.05,0,0,0.05,18.95,0)" xlink:href="#o"/><use transform="matrix(0.05,0,0,0.05,28.950000000000003,0)" xlink:href="#p"/><use transform="matrix(0.05,0,0,0.05,34.9,0)" xlink:href="#q"/><use transform="matrix(0.05,0,0,0.05,44.9,0)" xlink:href="#r"/><use transform="matrix(0.05,0,0,0.05,53.900000000000006,0)" xlink:href="#n"/><use transform="matrix(0.05,0,0,0.05,58.900000000000006,0)" xlink:href="#l"/><use transform="matrix(0.05,0,0,0.05,62.85,0)" xlink:href="#s"/><use transform="matrix(0.05,0,0,0.05,71.85,0)" xlink:href="#o"/><use transform="matrix(0.05,0,0,0.05,81.85,0)" xlink:href="#t"/><use transform="matrix(0.05,0,0,0.05,87.8,0)" xlink:href="#u"/><use transform="matrix(0.05,0,0,0.05,91.75,0)" xlink:href="#q"/><use transform="matrix(0.05,0,0,0.05,101.75,0)" xlink:href="#v"/><use transform="matrix(0.05,0,0,0.05,111.75,0)" xlink:href="#m"/><use transform="matrix(0.05,0,0,0.05,121.75,0)" xlink:href="#r"/><use transform="matrix(0.05,0,0,0.05,130.75,0)" xlink:href="#w"/><use transform="matrix(0.05,0,0,0.05,140.75,0)" xlink:href="#x"/><use transform="matrix(0.05,0,0,0.05,150.75,0)" xlink:href="#q"/><use transform="matrix(0.05,0,0,0.05,160.75,0)" xlink:href="#y"/></g><path d="M210-169c-67 3-38 105-44 169h-31v-121c0-29-5-50-35-48C34-165 62-65 56 0H25l-1-190h30c1 10-1 24 2 32 10-44 99-50 107 0 11-21 27-35 58-36 85-2 47 119 55 194h-31v-121c0-29-5-49-35-48" id="z"/><path d="M179-190L93 31C79 59 56 82 12 73V49c39 6 53-20 64-50L1-190h34L92-34l54-156h33" id="A"/><path d="M135-143c-3-34-86-38-87 0 15 53 115 12 119 90S17 21 10-45l28-5c4 36 97 45 98 0-10-56-113-15-118-90-4-57 82-63 122-42 12 7 21 19 24 35" id="B"/><path d="M100-194c62-1 85 37 85 99 1 63-27 99-86 99S16-35 15-95c0-66 28-99 85-99zM99-20c44 1 53-31 53-75 0-43-8-75-51-75s-53 32-53 75 10 74 51 75" id="C"/><path d="M115-194c53 0 69 39 70 98 0 66-23 100-70 100C84 3 66-7 56-30L54 0H23l1-261h32v101c10-23 28-34 59-34zm-8 174c40 0 45-34 45-75 0-40-5-75-45-74-42 0-51 32-51 76 0 43 10 73 51 73" id="D"/><g id="b"><use transform="matrix(0.05,0,0,0.05,0,0)" xlink:href="#z"/><use transform="matrix(0.05,0,0,0.05,14.950000000000001,0)" xlink:href="#A"/><use transform="matrix(0.05,0,0,0.05,23.950000000000003,0)" xlink:href="#t"/><use transform="matrix(0.05,0,0,0.05,29.900000000000002,0)" xlink:href="#r"/><use transform="matrix(0.05,0,0,0.05,38.900000000000006,0)" xlink:href="#v"/><use transform="matrix(0.05,0,0,0.05,48.900000000000006,0)" xlink:href="#B"/><use transform="matrix(0.05,0,0,0.05,57.900000000000006,0)" xlink:href="#n"/><use transform="matrix(0.05,0,0,0.05,62.900000000000006,0)" xlink:href="#C"/><use transform="matrix(0.05,0,0,0.05,72.9,0)" xlink:href="#z"/><use transform="matrix(0.05,0,0,0.05,87.85000000000001,0)" xlink:href="#t"/><use transform="matrix(0.05,0,0,0.05,93.80000000000001,0)" xlink:href="#D"/><use transform="matrix(0.05,0,0,0.05,103.80000000000001,0)" xlink:href="#v"/><use transform="matrix(0.05,0,0,0.05,113.80000000000001,0)" xlink:href="#m"/><use transform="matrix(0.05,0,0,0.05,123.80000000000001,0)" xlink:href="#y"/><use transform="matrix(0.05,0,0,0.05,133.8,0)" xlink:href="#u"/><use transform="matrix(0.05,0,0,0.05,137.75,0)" xlink:href="#o"/></g><path d="M160-131c35 5 61 23 61 61C221 17 115-2 30 0v-248c76 3 177-17 177 60 0 33-19 50-47 57zm-97-11c50-1 110 9 110-42 0-47-63-36-110-37v79zm0 115c55-2 124 14 124-45 0-56-70-42-124-44v89" id="E"/><g id="c"><use transform="matrix(0.05,0,0,0.05,0,0)" xlink:href="#E"/><use transform="matrix(0.05,0,0,0.05,12,0)" xlink:href="#v"/><use transform="matrix(0.05,0,0,0.05,22,0)" xlink:href="#m"/><use transform="matrix(0.05,0,0,0.05,32,0)" xlink:href="#y"/><use transform="matrix(0.05,0,0,0.05,42,0)" xlink:href="#u"/><use transform="matrix(0.05,0,0,0.05,45.95,0)" xlink:href="#o"/><use transform="matrix(0.05,0,0,0.05,55.95,0)" xlink:href="#B"/></g><path d="M30-248c87 1 191-15 191 75 0 78-77 80-158 76V0H30v-248zm33 125c57 0 124 11 124-50 0-59-68-47-124-48v98" id="F"/><path d="M24-231v-30h32v30H24zM-9 49c24 4 33-6 33-30v-209h32V24c2 40-23 58-65 49V49" id="G"/><g id="d"><use transform="matrix(0.05,0,0,0.05,0,0)" xlink:href="#F"/><use transform="matrix(0.05,0,0,0.05,12,0)" xlink:href="#p"/><use transform="matrix(0.05,0,0,0.05,17.95,0)" xlink:href="#C"/><use transform="matrix(0.05,0,0,0.05,27.950000000000003,0)" xlink:href="#G"/><use transform="matrix(0.05,0,0,0.05,31.899999999999995,0)" xlink:href="#o"/><use transform="matrix(0.05,0,0,0.05,41.9,0)" xlink:href="#r"/><use transform="matrix(0.05,0,0,0.05,50.9,0)" xlink:href="#n"/><use transform="matrix(0.05,0,0,0.05,55.900000000000006,0)" xlink:href="#B"/></g><path d="M240 0l2-218c-23 76-54 145-80 218h-23L58-218 59 0H30v-248h44l77 211c21-75 51-140 76-211h43V0h-30" id="H"/><g id="e"><use transform="matrix(0.05,0,0,0.05,0,0)" xlink:href="#H"/><use transform="matrix(0.05,0,0,0.05,14.950000000000001,0)" xlink:href="#A"/></g><path d="M205 0l-28-72H64L36 0H1l101-248h38L239 0h-34zm-38-99l-47-123c-12 45-31 82-46 123h93" id="I"/><path d="M206 0h-36l-40-164L89 0H53L-1-190h32L70-26l43-164h34l41 164 42-164h31" id="J"/><g id="f"><use transform="matrix(0.05,0,0,0.05,0,0)" xlink:href="#I"/><use transform="matrix(0.05,0,0,0.05,11.65,0)" xlink:href="#J"/><use transform="matrix(0.05,0,0,0.05,24.6,0)" xlink:href="#o"/><use transform="matrix(0.05,0,0,0.05,34.6,0)" xlink:href="#B"/><use transform="matrix(0.05,0,0,0.05,43.6,0)" xlink:href="#C"/><use transform="matrix(0.05,0,0,0.05,53.6,0)" xlink:href="#z"/><use transform="matrix(0.05,0,0,0.05,68.55,0)" xlink:href="#o"/></g><g id="g"><use transform="matrix(0.05,0,0,0.05,0,0)" xlink:href="#F"/><use transform="matrix(0.05,0,0,0.05,12,0)" xlink:href="#p"/><use transform="matrix(0.05,0,0,0.05,17.95,0)" xlink:href="#C"/><use transform="matrix(0.05,0,0,0.05,27.950000000000003,0)" xlink:href="#G"/><use transform="matrix(0.05,0,0,0.05,31.899999999999995,0)" xlink:href="#o"/><use transform="matrix(0.05,0,0,0.05,41.9,0)" xlink:href="#r"/><use transform="matrix(0.05,0,0,0.05,50.9,0)" xlink:href="#n"/></g><path d="M137 0h-34L2-248h35l83 218 83-218h36" id="K"/><g id="h"><use transform="matrix(0.05,0,0,0.05,0,0)" xlink:href="#K"/><use transform="matrix(0.05,0,0,0.05,11,0)" xlink:href="#o"/><use transform="matrix(0.05,0,0,0.05,21,0)" xlink:href="#p"/><use transform="matrix(0.05,0,0,0.05,26.950000000000003,0)" xlink:href="#B"/><use transform="matrix(0.05,0,0,0.05,35.95,0)" xlink:href="#l"/><use transform="matrix(0.05,0,0,0.05,39.900000000000006,0)" xlink:href="#C"/><use transform="matrix(0.05,0,0,0.05,49.900000000000006,0)" xlink:href="#m"/></g><path d="M27 0v-27h64v-190l-56 39v-29l58-41h29v221h61V0H27" id="L"/><path d="M33 0v-38h34V0H33" id="M"/><path d="M101-251c68 0 85 55 85 127S166 4 100 4C33 4 14-52 14-124c0-73 17-127 87-127zm-1 229c47 0 54-49 54-102s-4-102-53-102c-51 0-55 48-55 102 0 53 5 102 54 102" id="N"/><g id="i"><use transform="matrix(0.05,0,0,0.05,0,0)" xlink:href="#L"/><use transform="matrix(0.05,0,0,0.05,10,0)" xlink:href="#M"/><use transform="matrix(0.05,0,0,0.05,15,0)" xlink:href="#N"/><use transform="matrix(0.05,0,0,0.05,25,0)" xlink:href="#M"/><use transform="matrix(0.05,0,0,0.05,30,0)" xlink:href="#N"/></g><g id="j"><use transform="matrix(0.05,0,0,0.05,0,0)" xlink:href="#L"/><use transform="matrix(0.05,0,0,0.05,10,0)" xlink:href="#M"/><use transform="matrix(0.05,0,0,0.05,15,0)" xlink:href="#L"/><use transform="matrix(0.05,0,0,0.05,25,0)" xlink:href="#M"/><use transform="matrix(0.05,0,0,0.05,30,0)" xlink:href="#N"/></g><path d="M101-251c82-7 93 87 43 132L82-64C71-53 59-42 53-27h129V0H18c2-99 128-94 128-182 0-28-16-43-45-43s-46 15-49 41l-32-3c6-41 34-60 81-64" id="O"/><g id="k"><use transform="matrix(0.05,0,0,0.05,0,0)" xlink:href="#O"/><use transform="matrix(0.05,0,0,0.05,10,0)" xlink:href="#M"/><use transform="matrix(0.05,0,0,0.05,15,0)" xlink:href="#N"/><use transform="matrix(0.05,0,0,0.05,25,0)" xlink:href="#M"/><use transform="matrix(0.05,0,0,0.05,30,0)" xlink:href="#N"/></g></defs></g></svg>